<?xml version="1.0" encoding="UTF-8"?>
<svg width="20px" height="20px" viewBox="0 0 20 20" version="1.1" xmlns="http://www.w3.org/2000/svg" xmlns:xlink="http://www.w3.org/1999/xlink">
    <title>ICONS/furnitue/Dodaci</title>
    <g id="ICONS/furnitue/Dodaci" stroke="none" stroke-width="1" fill="none" fill-rule="evenodd">
        <g id="streamline-icon-dressing-hanging-rack-2@20x20" transform="translate(4.000000, 0.000000)" fill="#707070" fill-rule="nonzero">
            <path d="M8.15404176,17.4166665 L3.84583333,17.4166665 C2.92770363,17.4164372 2.1090295,17.9950654 1.80279161,18.86075 C1.7034805,19.1410131 1.74644562,19.4523229 1.91811156,19.6954252 C2.08977751,19.9385275 2.36877657,20.0831627 2.66638016,20.0833333 L9.33333333,20.0833333 C9.63122343,20.0831627 9.91022249,19.9385275 10.0818884,19.6954252 C10.2535544,19.4523229 10.2965195,19.1410131 10.1971198,18.8604999 C9.8909705,17.9950654 9.07229637,17.4164372 8.15404176,17.4166665 Z M8.15416667,18.4166666 L8.27656083,18.4230384 C8.67995189,18.4653168 9.03316215,18.7149556 9.208,19.083 L2.791,19.083 L2.84990388,18.9749339 C3.05887002,18.6329139 3.43367107,18.4165637 3.84570843,18.4166666 L8.15416667,18.4166666 Z" id="Path"></path>
            <path d="M6,-0.0833333333 C6.9181734,-0.0833333333 7.67119234,0.62377694 7.7441988,1.52313946 L7.75,1.66666667 L7.75,17.9166667 C7.75,18.192809 7.52614237,18.4166667 7.25,18.4166667 C7.00454011,18.4166667 6.80039163,18.2397915 6.75805567,18.0065423 L6.75,17.9166667 L6.75,1.66666667 C6.75,1.2524531 6.41421356,0.916666667 6,0.916666667 C5.62030423,0.916666667 5.30650904,1.19882055 5.25684662,1.56489611 L5.25,1.66666667 L5.25,17.9166667 C5.25,18.192809 5.02614237,18.4166667 4.75,18.4166667 C4.50454011,18.4166667 4.30039163,18.2397915 4.25805567,18.0065423 L4.25,17.9166667 L4.25,1.66666667 C4.25,0.700168354 5.03350169,-0.0833333333 6,-0.0833333333 Z" id="Path"></path>
            <path d="M10.5833333,2 C10.8287932,2 11.0329417,2.17687516 11.0752777,2.41012437 L11.0833333,2.5 L11.0833333,3.75 C11.0833333,4.89459013 10.195802,5.83188622 9.07140115,5.91122655 L8.91666667,5.91666667 L7.25,5.91666667 C6.97385763,5.91666667 6.75,5.69280904 6.75,5.41666667 C6.75,5.17120678 6.92687516,4.9670583 7.16012437,4.92472234 L7.25,4.91666667 L8.91666667,4.91666667 C9.51804339,4.91666667 10.0131465,4.46165532 10.0764875,3.87712119 L10.0833333,3.75 L10.0833333,2.5 C10.0833333,2.22385763 10.307191,2 10.5833333,2 Z" id="Path"></path>
            <path d="M10.5833333,0.333333333 C9.84695367,0.333333333 9.25,0.930287 9.25,1.66666667 C9.25,2.40304633 9.84695367,3 10.5833333,3 C11.319713,3 11.9166667,2.40304633 11.9166667,1.66666667 C11.9166667,0.930287 11.319713,0.333333333 10.5833333,0.333333333 Z M10.5833333,1.33333333 C10.7674282,1.33333333 10.9166667,1.48257175 10.9166667,1.66666667 C10.9166667,1.85076158 10.7674282,2 10.5833333,2 C10.3992384,2 10.25,1.85076158 10.25,1.66666667 C10.25,1.48257175 10.3992384,1.33333333 10.5833333,1.33333333 Z" id="Path"></path>
            <path d="M10.5833333,7.83333333 C10.8287932,7.83333333 11.0329417,8.01020849 11.0752777,8.2434577 L11.0833333,8.33333333 L11.0833333,9.58333333 C11.0833333,10.7279235 10.195802,11.6652196 9.07140115,11.7445599 L8.91666667,11.75 L7.25,11.75 C6.97385763,11.75 6.75,11.5261424 6.75,11.25 C6.75,11.0045401 6.92687516,10.8003916 7.16012437,10.7580557 L7.25,10.75 L8.91666667,10.75 C9.51804339,10.75 10.0131465,10.2949886 10.0764875,9.71045452 L10.0833333,9.58333333 L10.0833333,8.33333333 C10.0833333,8.05719096 10.307191,7.83333333 10.5833333,7.83333333 Z" id="Path"></path>
            <path d="M10.5833333,6.16666667 C9.84695367,6.16666667 9.25,6.76362033 9.25,7.5 C9.25,8.23637967 9.84695367,8.83333333 10.5833333,8.83333333 C11.319713,8.83333333 11.9166667,8.23637967 11.9166667,7.5 C11.9166667,6.76362033 11.319713,6.16666667 10.5833333,6.16666667 Z M10.5833333,7.16666667 C10.7674282,7.16666667 10.9166667,7.31590508 10.9166667,7.5 C10.9166667,7.68409492 10.7674282,7.83333333 10.5833333,7.83333333 C10.3992384,7.83333333 10.25,7.68409492 10.25,7.5 C10.25,7.31590508 10.3992384,7.16666667 10.5833333,7.16666667 Z" id="Path"></path>
            <path d="M1.41666667,3.66666667 C1.66212656,3.66666667 1.86627504,3.84354183 1.908611,4.07679103 L1.91666667,4.16666667 L1.91666667,5.41666667 C1.91666667,6.01804339 2.37167802,6.51314653 2.95621215,6.57648749 L3.08333333,6.58333333 L4.75,6.58333333 C5.02614237,6.58333333 5.25,6.80719096 5.25,7.08333333 C5.25,7.32879322 5.07312484,7.5329417 4.83987563,7.57527766 L4.75,7.58333333 L3.08333333,7.58333333 C1.9387432,7.58333333 1.00144711,6.69580203 0.922106787,5.57140115 L0.916666667,5.41666667 L0.916666667,4.16666667 C0.916666667,3.89052429 1.14052429,3.66666667 1.41666667,3.66666667 Z" id="Path"></path>
            <path d="M1.41666667,2 C0.680287,2 0.0833333333,2.59695367 0.0833333333,3.33333333 C0.0833333333,4.069713 0.680287,4.66666667 1.41666667,4.66666667 C2.15304633,4.66666667 2.75,4.069713 2.75,3.33333333 C2.75,2.59695367 2.15304633,2 1.41666667,2 Z M1.41666667,3 C1.60076158,3 1.75,3.14923842 1.75,3.33333333 C1.75,3.51742825 1.60076158,3.66666667 1.41666667,3.66666667 C1.23257175,3.66666667 1.08333333,3.51742825 1.08333333,3.33333333 C1.08333333,3.14923842 1.23257175,3 1.41666667,3 Z" id="Path"></path>
            <path d="M1.41666667,9.5 C1.66212656,9.5 1.86627504,9.67687516 1.908611,9.91012437 L1.91666667,10 L1.91666667,11.25 C1.91666667,11.8513767 2.37167802,12.3464799 2.95621215,12.4098208 L3.08333333,12.4166667 L4.75,12.4166667 C5.02614237,12.4166667 5.25,12.6405243 5.25,12.9166667 C5.25,13.1621266 5.07312484,13.366275 4.83987563,13.408611 L4.75,13.4166667 L3.08333333,13.4166667 C1.9387432,13.4166667 1.00144711,12.5291354 0.922106787,11.4047345 L0.916666667,11.25 L0.916666667,10 C0.916666667,9.72385763 1.14052429,9.5 1.41666667,9.5 Z" id="Path"></path>
            <path d="M1.41666667,7.83333333 C0.680287,7.83333333 0.0833333333,8.430287 0.0833333333,9.16666667 C0.0833333333,9.90304633 0.680287,10.5 1.41666667,10.5 C2.15304633,10.5 2.75,9.90304633 2.75,9.16666667 C2.75,8.430287 2.15304633,7.83333333 1.41666667,7.83333333 Z M1.41666667,8.83333333 C1.60076158,8.83333333 1.75,8.98257175 1.75,9.16666667 C1.75,9.35076158 1.60076158,9.5 1.41666667,9.5 C1.23257175,9.5 1.08333333,9.35076158 1.08333333,9.16666667 C1.08333333,8.98257175 1.23257175,8.83333333 1.41666667,8.83333333 Z" id="Path"></path>
        </g>
    </g>
</svg>