<?xml version="1.0" encoding="UTF-8"?>
<svg width="20px" height="20px" viewBox="0 0 20 20" version="1.1" xmlns="http://www.w3.org/2000/svg" xmlns:xlink="http://www.w3.org/1999/xlink">
    <title>ICONS/furnitue/Duseci</title>
    <g id="ICONS/furnitue/Duseci" stroke="none" stroke-width="1" fill="none" fill-rule="evenodd">
        <g id="streamline-icon-armchair@20x20" transform="translate(5.000000, 3.000000)" fill="#707070" fill-rule="nonzero">
            <path d="M-0.0202200573,0.0631132761 C0.153346295,-0.110453076 0.422770696,-0.129738226 0.617638836,0.00525782544 L0.686886724,0.0631132761 L1.76438672,1.14061328 C1.95964887,1.33587542 1.95964887,1.65245791 1.76438672,1.84772006 C1.59082037,2.02128641 1.32139597,2.04057156 1.12652783,1.90557551 L1.05727994,1.84772006 L-0.0202200573,0.770220057 C-0.215482203,0.574957911 -0.215482203,0.258375422 -0.0202200573,0.0631132761 Z" id="Path"></path>
            <path d="M3.31311328,0.0631132761 C3.50837542,-0.13214887 3.82495791,-0.13214887 4.02022006,0.0631132761 C4.19378641,0.236679628 4.21307156,0.506104029 4.07807551,0.70097217 L4.02022006,0.770220057 L2.94272006,1.84772006 C2.74745791,2.0429822 2.43087542,2.0429822 2.23561328,1.84772006 C2.06204692,1.67415371 2.04276177,1.4047293 2.17775783,1.20986116 L2.23561328,1.14061328 L3.31311328,0.0631132761 Z" id="Path"></path>
            <path d="M2.23561328,2.31894661 C2.40917963,2.14538026 2.67860403,2.12609511 2.87347217,2.26109116 L2.94272006,2.31894661 L4.02022006,3.39644661 C4.2154822,3.59170876 4.2154822,3.90829124 4.02022006,4.10355339 C3.84665371,4.27711974 3.5772293,4.29640489 3.38236116,4.16140884 L3.31311328,4.10355339 L2.23561328,3.02605339 C2.04035113,2.83079124 2.04035113,2.51420876 2.23561328,2.31894661 Z" id="Path"></path>
            <path d="M1.05727994,2.31894661 C1.25254209,2.12368446 1.56912458,2.12368446 1.76438672,2.31894661 C1.93795308,2.49251296 1.95723823,2.76193736 1.82224217,2.9568055 L1.76438672,3.02605339 L0.686886724,4.10355339 C0.491624578,4.29881554 0.175042089,4.29881554 -0.0202200573,4.10355339 C-0.193786409,3.92998704 -0.213071559,3.66056264 -0.0780755079,3.4656945 L-0.0202200573,3.39644661 L1.05727994,2.31894661 Z" id="Path"></path>
            <path d="M2,0.75 C1.26362033,0.75 0.666666667,1.34695367 0.666666667,2.08333333 C0.666666667,2.819713 1.26362033,3.41666667 2,3.41666667 C2.73637967,3.41666667 3.33333333,2.819713 3.33333333,2.08333333 C3.33333333,1.34695367 2.73637967,0.75 2,0.75 Z M2,1.75 C2.18409492,1.75 2.33333333,1.89923842 2.33333333,2.08333333 C2.33333333,2.26742825 2.18409492,2.41666667 2,2.41666667 C1.81590508,2.41666667 1.66666667,2.26742825 1.66666667,2.08333333 C1.66666667,1.89923842 1.81590508,1.75 2,1.75 Z" id="Path"></path>
        </g>
        <g id="streamline-icon-armchair@20x20-copy-2" transform="translate(5.000000, 8.000000)" fill="#707070" fill-rule="nonzero">
            <path d="M-0.0202200573,0.0631132761 C0.153346295,-0.110453076 0.422770696,-0.129738226 0.617638836,0.00525782544 L0.686886724,0.0631132761 L1.76438672,1.14061328 C1.95964887,1.33587542 1.95964887,1.65245791 1.76438672,1.84772006 C1.59082037,2.02128641 1.32139597,2.04057156 1.12652783,1.90557551 L1.05727994,1.84772006 L-0.0202200573,0.770220057 C-0.215482203,0.574957911 -0.215482203,0.258375422 -0.0202200573,0.0631132761 Z" id="Path"></path>
            <path d="M3.31311328,0.0631132761 C3.50837542,-0.13214887 3.82495791,-0.13214887 4.02022006,0.0631132761 C4.19378641,0.236679628 4.21307156,0.506104029 4.07807551,0.70097217 L4.02022006,0.770220057 L2.94272006,1.84772006 C2.74745791,2.0429822 2.43087542,2.0429822 2.23561328,1.84772006 C2.06204692,1.67415371 2.04276177,1.4047293 2.17775783,1.20986116 L2.23561328,1.14061328 L3.31311328,0.0631132761 Z" id="Path"></path>
            <path d="M2.23561328,2.31894661 C2.40917963,2.14538026 2.67860403,2.12609511 2.87347217,2.26109116 L2.94272006,2.31894661 L4.02022006,3.39644661 C4.2154822,3.59170876 4.2154822,3.90829124 4.02022006,4.10355339 C3.84665371,4.27711974 3.5772293,4.29640489 3.38236116,4.16140884 L3.31311328,4.10355339 L2.23561328,3.02605339 C2.04035113,2.83079124 2.04035113,2.51420876 2.23561328,2.31894661 Z" id="Path"></path>
            <path d="M1.05727994,2.31894661 C1.25254209,2.12368446 1.56912458,2.12368446 1.76438672,2.31894661 C1.93795308,2.49251296 1.95723823,2.76193736 1.82224217,2.9568055 L1.76438672,3.02605339 L0.686886724,4.10355339 C0.491624578,4.29881554 0.175042089,4.29881554 -0.0202200573,4.10355339 C-0.193786409,3.92998704 -0.213071559,3.66056264 -0.0780755079,3.4656945 L-0.0202200573,3.39644661 L1.05727994,2.31894661 Z" id="Path"></path>
            <path d="M2,0.75 C1.26362033,0.75 0.666666667,1.34695367 0.666666667,2.08333333 C0.666666667,2.819713 1.26362033,3.41666667 2,3.41666667 C2.73637967,3.41666667 3.33333333,2.819713 3.33333333,2.08333333 C3.33333333,1.34695367 2.73637967,0.75 2,0.75 Z M2,1.75 C2.18409492,1.75 2.33333333,1.89923842 2.33333333,2.08333333 C2.33333333,2.26742825 2.18409492,2.41666667 2,2.41666667 C1.81590508,2.41666667 1.66666667,2.26742825 1.66666667,2.08333333 C1.66666667,1.89923842 1.81590508,1.75 2,1.75 Z" id="Path"></path>
        </g>
        <g id="streamline-icon-armchair@20x20-copy-4" transform="translate(5.000000, 13.000000)" fill="#707070" fill-rule="nonzero">
            <path d="M-0.0202200573,0.0631132761 C0.153346295,-0.110453076 0.422770696,-0.129738226 0.617638836,0.00525782544 L0.686886724,0.0631132761 L1.76438672,1.14061328 C1.95964887,1.33587542 1.95964887,1.65245791 1.76438672,1.84772006 C1.59082037,2.02128641 1.32139597,2.04057156 1.12652783,1.90557551 L1.05727994,1.84772006 L-0.0202200573,0.770220057 C-0.215482203,0.574957911 -0.215482203,0.258375422 -0.0202200573,0.0631132761 Z" id="Path"></path>
            <path d="M3.31311328,0.0631132761 C3.50837542,-0.13214887 3.82495791,-0.13214887 4.02022006,0.0631132761 C4.19378641,0.236679628 4.21307156,0.506104029 4.07807551,0.70097217 L4.02022006,0.770220057 L2.94272006,1.84772006 C2.74745791,2.0429822 2.43087542,2.0429822 2.23561328,1.84772006 C2.06204692,1.67415371 2.04276177,1.4047293 2.17775783,1.20986116 L2.23561328,1.14061328 L3.31311328,0.0631132761 Z" id="Path"></path>
            <path d="M2.23561328,2.31894661 C2.40917963,2.14538026 2.67860403,2.12609511 2.87347217,2.26109116 L2.94272006,2.31894661 L4.02022006,3.39644661 C4.2154822,3.59170876 4.2154822,3.90829124 4.02022006,4.10355339 C3.84665371,4.27711974 3.5772293,4.29640489 3.38236116,4.16140884 L3.31311328,4.10355339 L2.23561328,3.02605339 C2.04035113,2.83079124 2.04035113,2.51420876 2.23561328,2.31894661 Z" id="Path"></path>
            <path d="M1.05727994,2.31894661 C1.25254209,2.12368446 1.56912458,2.12368446 1.76438672,2.31894661 C1.93795308,2.49251296 1.95723823,2.76193736 1.82224217,2.9568055 L1.76438672,3.02605339 L0.686886724,4.10355339 C0.491624578,4.29881554 0.175042089,4.29881554 -0.0202200573,4.10355339 C-0.193786409,3.92998704 -0.213071559,3.66056264 -0.0780755079,3.4656945 L-0.0202200573,3.39644661 L1.05727994,2.31894661 Z" id="Path"></path>
            <path d="M2,0.75 C1.26362033,0.75 0.666666667,1.34695367 0.666666667,2.08333333 C0.666666667,2.819713 1.26362033,3.41666667 2,3.41666667 C2.73637967,3.41666667 3.33333333,2.819713 3.33333333,2.08333333 C3.33333333,1.34695367 2.73637967,0.75 2,0.75 Z M2,1.75 C2.18409492,1.75 2.33333333,1.89923842 2.33333333,2.08333333 C2.33333333,2.26742825 2.18409492,2.41666667 2,2.41666667 C1.81590508,2.41666667 1.66666667,2.26742825 1.66666667,2.08333333 C1.66666667,1.89923842 1.81590508,1.75 2,1.75 Z" id="Path"></path>
        </g>
        <g id="streamline-icon-armchair@20x20-copy" transform="translate(11.000000, 3.000000)" fill="#707070" fill-rule="nonzero">
            <path d="M-0.0202200573,0.0631132761 C0.153346295,-0.110453076 0.422770696,-0.129738226 0.617638836,0.00525782544 L0.686886724,0.0631132761 L1.76438672,1.14061328 C1.95964887,1.33587542 1.95964887,1.65245791 1.76438672,1.84772006 C1.59082037,2.02128641 1.32139597,2.04057156 1.12652783,1.90557551 L1.05727994,1.84772006 L-0.0202200573,0.770220057 C-0.215482203,0.574957911 -0.215482203,0.258375422 -0.0202200573,0.0631132761 Z" id="Path"></path>
            <path d="M3.31311328,0.0631132761 C3.50837542,-0.13214887 3.82495791,-0.13214887 4.02022006,0.0631132761 C4.19378641,0.236679628 4.21307156,0.506104029 4.07807551,0.70097217 L4.02022006,0.770220057 L2.94272006,1.84772006 C2.74745791,2.0429822 2.43087542,2.0429822 2.23561328,1.84772006 C2.06204692,1.67415371 2.04276177,1.4047293 2.17775783,1.20986116 L2.23561328,1.14061328 L3.31311328,0.0631132761 Z" id="Path"></path>
            <path d="M2.23561328,2.31894661 C2.40917963,2.14538026 2.67860403,2.12609511 2.87347217,2.26109116 L2.94272006,2.31894661 L4.02022006,3.39644661 C4.2154822,3.59170876 4.2154822,3.90829124 4.02022006,4.10355339 C3.84665371,4.27711974 3.5772293,4.29640489 3.38236116,4.16140884 L3.31311328,4.10355339 L2.23561328,3.02605339 C2.04035113,2.83079124 2.04035113,2.51420876 2.23561328,2.31894661 Z" id="Path"></path>
            <path d="M1.05727994,2.31894661 C1.25254209,2.12368446 1.56912458,2.12368446 1.76438672,2.31894661 C1.93795308,2.49251296 1.95723823,2.76193736 1.82224217,2.9568055 L1.76438672,3.02605339 L0.686886724,4.10355339 C0.491624578,4.29881554 0.175042089,4.29881554 -0.0202200573,4.10355339 C-0.193786409,3.92998704 -0.213071559,3.66056264 -0.0780755079,3.4656945 L-0.0202200573,3.39644661 L1.05727994,2.31894661 Z" id="Path"></path>
            <path d="M2,0.75 C1.26362033,0.75 0.666666667,1.34695367 0.666666667,2.08333333 C0.666666667,2.819713 1.26362033,3.41666667 2,3.41666667 C2.73637967,3.41666667 3.33333333,2.819713 3.33333333,2.08333333 C3.33333333,1.34695367 2.73637967,0.75 2,0.75 Z M2,1.75 C2.18409492,1.75 2.33333333,1.89923842 2.33333333,2.08333333 C2.33333333,2.26742825 2.18409492,2.41666667 2,2.41666667 C1.81590508,2.41666667 1.66666667,2.26742825 1.66666667,2.08333333 C1.66666667,1.89923842 1.81590508,1.75 2,1.75 Z" id="Path"></path>
        </g>
        <g id="streamline-icon-armchair@20x20-copy-3" transform="translate(11.000000, 8.000000)" fill="#707070" fill-rule="nonzero">
            <path d="M-0.0202200573,0.0631132761 C0.153346295,-0.110453076 0.422770696,-0.129738226 0.617638836,0.00525782544 L0.686886724,0.0631132761 L1.76438672,1.14061328 C1.95964887,1.33587542 1.95964887,1.65245791 1.76438672,1.84772006 C1.59082037,2.02128641 1.32139597,2.04057156 1.12652783,1.90557551 L1.05727994,1.84772006 L-0.0202200573,0.770220057 C-0.215482203,0.574957911 -0.215482203,0.258375422 -0.0202200573,0.0631132761 Z" id="Path"></path>
            <path d="M3.31311328,0.0631132761 C3.50837542,-0.13214887 3.82495791,-0.13214887 4.02022006,0.0631132761 C4.19378641,0.236679628 4.21307156,0.506104029 4.07807551,0.70097217 L4.02022006,0.770220057 L2.94272006,1.84772006 C2.74745791,2.0429822 2.43087542,2.0429822 2.23561328,1.84772006 C2.06204692,1.67415371 2.04276177,1.4047293 2.17775783,1.20986116 L2.23561328,1.14061328 L3.31311328,0.0631132761 Z" id="Path"></path>
            <path d="M2.23561328,2.31894661 C2.40917963,2.14538026 2.67860403,2.12609511 2.87347217,2.26109116 L2.94272006,2.31894661 L4.02022006,3.39644661 C4.2154822,3.59170876 4.2154822,3.90829124 4.02022006,4.10355339 C3.84665371,4.27711974 3.5772293,4.29640489 3.38236116,4.16140884 L3.31311328,4.10355339 L2.23561328,3.02605339 C2.04035113,2.83079124 2.04035113,2.51420876 2.23561328,2.31894661 Z" id="Path"></path>
            <path d="M1.05727994,2.31894661 C1.25254209,2.12368446 1.56912458,2.12368446 1.76438672,2.31894661 C1.93795308,2.49251296 1.95723823,2.76193736 1.82224217,2.9568055 L1.76438672,3.02605339 L0.686886724,4.10355339 C0.491624578,4.29881554 0.175042089,4.29881554 -0.0202200573,4.10355339 C-0.193786409,3.92998704 -0.213071559,3.66056264 -0.0780755079,3.4656945 L-0.0202200573,3.39644661 L1.05727994,2.31894661 Z" id="Path"></path>
            <path d="M2,0.75 C1.26362033,0.75 0.666666667,1.34695367 0.666666667,2.08333333 C0.666666667,2.819713 1.26362033,3.41666667 2,3.41666667 C2.73637967,3.41666667 3.33333333,2.819713 3.33333333,2.08333333 C3.33333333,1.34695367 2.73637967,0.75 2,0.75 Z M2,1.75 C2.18409492,1.75 2.33333333,1.89923842 2.33333333,2.08333333 C2.33333333,2.26742825 2.18409492,2.41666667 2,2.41666667 C1.81590508,2.41666667 1.66666667,2.26742825 1.66666667,2.08333333 C1.66666667,1.89923842 1.81590508,1.75 2,1.75 Z" id="Path"></path>
        </g>
        <g id="streamline-icon-armchair@20x20-copy-5" transform="translate(11.000000, 13.000000)" fill="#707070" fill-rule="nonzero">
            <path d="M-0.0202200573,0.0631132761 C0.153346295,-0.110453076 0.422770696,-0.129738226 0.617638836,0.00525782544 L0.686886724,0.0631132761 L1.76438672,1.14061328 C1.95964887,1.33587542 1.95964887,1.65245791 1.76438672,1.84772006 C1.59082037,2.02128641 1.32139597,2.04057156 1.12652783,1.90557551 L1.05727994,1.84772006 L-0.0202200573,0.770220057 C-0.215482203,0.574957911 -0.215482203,0.258375422 -0.0202200573,0.0631132761 Z" id="Path"></path>
            <path d="M3.31311328,0.0631132761 C3.50837542,-0.13214887 3.82495791,-0.13214887 4.02022006,0.0631132761 C4.19378641,0.236679628 4.21307156,0.506104029 4.07807551,0.70097217 L4.02022006,0.770220057 L2.94272006,1.84772006 C2.74745791,2.0429822 2.43087542,2.0429822 2.23561328,1.84772006 C2.06204692,1.67415371 2.04276177,1.4047293 2.17775783,1.20986116 L2.23561328,1.14061328 L3.31311328,0.0631132761 Z" id="Path"></path>
            <path d="M2.23561328,2.31894661 C2.40917963,2.14538026 2.67860403,2.12609511 2.87347217,2.26109116 L2.94272006,2.31894661 L4.02022006,3.39644661 C4.2154822,3.59170876 4.2154822,3.90829124 4.02022006,4.10355339 C3.84665371,4.27711974 3.5772293,4.29640489 3.38236116,4.16140884 L3.31311328,4.10355339 L2.23561328,3.02605339 C2.04035113,2.83079124 2.04035113,2.51420876 2.23561328,2.31894661 Z" id="Path"></path>
            <path d="M1.05727994,2.31894661 C1.25254209,2.12368446 1.56912458,2.12368446 1.76438672,2.31894661 C1.93795308,2.49251296 1.95723823,2.76193736 1.82224217,2.9568055 L1.76438672,3.02605339 L0.686886724,4.10355339 C0.491624578,4.29881554 0.175042089,4.29881554 -0.0202200573,4.10355339 C-0.193786409,3.92998704 -0.213071559,3.66056264 -0.0780755079,3.4656945 L-0.0202200573,3.39644661 L1.05727994,2.31894661 Z" id="Path"></path>
            <path d="M2,0.75 C1.26362033,0.75 0.666666667,1.34695367 0.666666667,2.08333333 C0.666666667,2.819713 1.26362033,3.41666667 2,3.41666667 C2.73637967,3.41666667 3.33333333,2.819713 3.33333333,2.08333333 C3.33333333,1.34695367 2.73637967,0.75 2,0.75 Z M2,1.75 C2.18409492,1.75 2.33333333,1.89923842 2.33333333,2.08333333 C2.33333333,2.26742825 2.18409492,2.41666667 2,2.41666667 C1.81590508,2.41666667 1.66666667,2.26742825 1.66666667,2.08333333 C1.66666667,1.89923842 1.81590508,1.75 2,1.75 Z" id="Path"></path>
        </g>
        <path d="M17,0 L3,0 C2.44771525,0 2,0.44771525 2,1 L2,19 C2,19.5522847 2.44771525,20 3,20 L17,20 C17.5522847,20 18,19.5522847 18,19 L18,1 C18,0.44771525 17.5522847,0 17,0 Z M17,1 L17,19 L3,19 L3,1 L17,1 Z" id="Path" fill="#707070" fill-rule="nonzero"></path>
    </g>
</svg>