<?xml version="1.0" encoding="UTF-8"?>
<svg width="20px" height="20px" viewBox="0 0 20 20" version="1.1" xmlns="http://www.w3.org/2000/svg" xmlns:xlink="http://www.w3.org/1999/xlink">
    <title>ICONS/furnitue/GarderoberiOrmari</title>
    <g id="ICONS/furnitue/GarderoberiOrmari" stroke="none" stroke-width="1" fill="none" fill-rule="evenodd">
        <g id="streamline-icon-dresser-wardrobe@20x20" transform="translate(2.000000, 1.000000)" fill="#707070" fill-rule="nonzero">
            <path d="M16,-1 L0,-1 C-0.55228475,-1 -1,-0.55228475 -1,0 L-1,17 C-1,17.5522847 -0.55228475,18 0,18 L16,18 C16.5522847,18 17,17.5522847 17,17 L17,0 C17,-0.55228475 16.5522847,-1 16,-1 Z M16,0 L16,17 L0,17 L0,0 L16,0 Z" id="Path"></path>
            <path d="M1.75,17.25 C1.99545989,17.25 2.19960837,17.4268752 2.24194433,17.6601244 L2.25,17.75 L2.25,18.5833333 C2.25,18.8594757 2.02614237,19.0833333 1.75,19.0833333 C1.50454011,19.0833333 1.30039163,18.9064582 1.25805567,18.673209 L1.25,18.5833333 L1.25,17.75 C1.25,17.4738576 1.47385763,17.25 1.75,17.25 Z" id="Path"></path>
            <path d="M14.25,17.25 C14.4954599,17.25 14.6996084,17.4268752 14.7419443,17.6601244 L14.75,17.75 L14.75,18.5833333 C14.75,18.8594757 14.5261424,19.0833333 14.25,19.0833333 C14.0045401,19.0833333 13.8003916,18.9064582 13.7580557,18.673209 L13.75,18.5833333 L13.75,17.75 C13.75,17.4738576 13.9738576,17.25 14.25,17.25 Z" id="Path"></path>
            <path d="M8,-0.0833333333 C8.24545989,-0.0833333333 8.44960837,0.0935418272 8.49194433,0.326791034 L8.5,0.416666667 L8.5,16.75 C8.5,17.0261424 8.27614237,17.25 8,17.25 C7.75454011,17.25 7.55039163,17.0731248 7.50805567,16.8398756 L7.5,16.75 L7.5,0.416666667 C7.5,0.140524292 7.72385763,-0.0833333333 8,-0.0833333333 Z" id="Path"></path>
            <path d="M5.91666667,7.45833333 L6.0127833,7.46479958 C6.35852133,7.51170298 6.625,7.80806511 6.625,8.16666667 C6.625,8.55786836 6.30786836,8.875 5.91666667,8.875 C5.52546497,8.875 5.20833333,8.55786836 5.20833333,8.16666667 C5.20833333,7.80806511 5.474812,7.51170298 5.82055003,7.46479958 L5.91666667,7.45833333 Z" id="Path"></path>
            <path d="M10.0833333,7.45833333 L10.17945,7.46479958 C10.525188,7.51170298 10.7916667,7.80806511 10.7916667,8.16666667 C10.7916667,8.55786836 10.474535,8.875 10.0833333,8.875 C9.69213164,8.875 9.375,8.55786836 9.375,8.16666667 C9.375,7.80806511 9.64147867,7.51170298 9.9872167,7.46479958 L10.0833333,7.45833333 Z" id="Path"></path>
        </g>
    </g>
</svg>