<?xml version="1.0" encoding="UTF-8"?>
<svg width="20px" height="20px" viewBox="0 0 20 20" version="1.1" xmlns="http://www.w3.org/2000/svg" xmlns:xlink="http://www.w3.org/1999/xlink">
    <title>ICONS/furnitue/KancelarijskiNamestaj</title>
    <g id="ICONS/furnitue/KancelarijskiNamestaj" stroke="none" stroke-width="1" fill="none" fill-rule="evenodd">
        <g id="streamline-icon-office-chair@20x20" fill="#707070" fill-rule="nonzero">
            <path d="M10,14.0833333 C10.2454599,14.0833333 10.4496084,14.2602085 10.4919443,14.4934577 L10.5,14.5833333 L10.5,17.9166667 C10.5,18.192809 10.2761424,18.4166667 10,18.4166667 C9.75454011,18.4166667 9.55039163,18.2397915 9.50805567,18.0065423 L9.5,17.9166667 L9.5,14.5833333 C9.5,14.307191 9.72385763,14.0833333 10,14.0833333 Z" id="Path"></path>
            <path d="M17.5980891,8.25971587 C17.8387793,8.30786974 18.0042617,8.52135739 18.0000166,8.75837955 L17.9902841,8.84808909 L17.4799543,11.3973913 C17.2081396,12.54866 16.1994517,13.3755985 15.0172332,13.4163696 C14.7412549,13.4258872 14.5098147,13.2098782 14.5002971,12.9338999 C14.4907794,12.6579216 14.7067885,12.4264814 14.9827668,12.4169637 C15.6655593,12.3934163 16.2548104,11.9460866 16.4641175,11.3209912 L16.5030492,11.1844109 L17.0097159,8.65191091 C17.0578697,8.41122073 17.2713574,8.24573826 17.5083796,8.24998336 L17.5980891,8.25971587 Z" id="Path"></path>
            <path d="M2.40191091,8.25971587 C2.64260108,8.21156199 2.87748165,8.34495068 2.96475336,8.56536206 L2.99028413,8.65191091 L3.49328766,11.1676087 C3.66148815,11.8800202 4.28566983,12.3917343 5.01723323,12.4169637 C5.29321154,12.4264814 5.50922058,12.6579216 5.49970293,12.9338999 C5.49018528,13.2098782 5.25874507,13.4258872 4.98276677,13.4163696 C3.85965921,13.377637 2.89316305,12.6293884 2.56313333,11.5531856 L2.51638253,11.3805891 L2.00971587,8.84808909 C1.95554276,8.57731264 2.13113446,8.31388898 2.40191091,8.25971587 Z" id="Path"></path>
            <path d="M10,-0.0833333333 C10.3102065,-0.0833333333 10.6156742,-0.0693290852 10.9177337,-0.0421163714 C13.3913958,0.182591051 15.5,2.25989227 15.5,4.58333333 C15.5,4.71596212 15.4825291,4.88353122 15.4485504,5.08476461 L15.3853218,5.41170342 L15.2980537,5.78818164 L15.1874684,6.21324226 L15.0542882,6.68592826 L14.8992354,7.20528261 L14.7230322,7.77034829 L14.4329262,8.66360836 C14.2802079,9.12420653 14.1203008,9.59340624 13.9580023,10.0596461 L13.4960238,11.3621641 L13.3858736,11.6644233 C13.2904628,11.9235591 13.0030459,12.0562844 12.7439101,11.9608736 C12.4847742,11.8654628 12.3520489,11.5780459 12.4474597,11.3189101 L12.7710145,10.4207009 C12.9330447,9.96442384 13.0950676,9.49952627 13.2522356,9.03774921 L13.5814037,8.0524147 L13.7643701,7.48498797 L14.0039439,6.709291 L14.1398593,6.24428305 L14.2555829,5.82467521 L14.3501276,5.45364016 C14.3640653,5.39602497 14.3770794,5.34056584 14.3891494,5.28732887 L14.450075,4.99510172 L14.4873543,4.75937898 C14.4957299,4.69057466 14.5,4.63171652 14.5,4.58333333 C14.5,2.80138196 12.8071195,1.13363288 10.8276366,0.953816546 C10.5554912,0.929298941 10.2799498,0.916666667 10,0.916666667 C9.72005025,0.916666667 9.44450876,0.929298941 9.17273374,0.953783038 C7.1928805,1.13363288 5.5,2.80138196 5.5,4.58333333 C5.5,4.63171652 5.50427008,4.69057466 5.51264574,4.75937898 L5.54992496,4.99510172 L5.61085062,5.28732887 L5.69443571,5.6328878 L5.79969321,6.02860583 L5.9256361,6.4713103 L6.15117641,7.21652642 L6.41859629,8.0524147 L6.51625949,8.34889164 C6.66736071,8.80461292 6.82574064,9.26932525 6.98655165,9.73128755 L7.55254028,11.3189101 C7.64795112,11.5780459 7.51522578,11.8654628 7.25608994,11.9608736 C6.9969541,12.0562844 6.70953723,11.9235591 6.61412639,11.6644233 L6.28663947,10.7553408 C6.12314882,10.2949512 5.95965091,9.82582095 5.80094316,9.35951159 L5.4681428,8.36328153 L5.27696781,7.77034829 L5.10076462,7.20528261 L4.94571179,6.68592826 L4.81253159,6.21324226 L4.7019463,5.78818164 L4.61467822,5.41170342 L4.55144962,5.08476461 C4.51747089,4.88353122 4.5,4.71596212 4.5,4.58333333 C4.5,2.25989227 6.60860421,0.182591051 9.08263665,-0.0421498788 C9.38432584,-0.0693290852 9.6897935,-0.0833333333 10,-0.0833333333 Z" id="Path"></path>
            <path d="M10,17.4166667 C9.26362033,17.4166667 8.66666667,18.0136203 8.66666667,18.75 C8.66666667,19.4863797 9.26362033,20.0833333 10,20.0833333 C10.7363797,20.0833333 11.3333333,19.4863797 11.3333333,18.75 C11.3333333,18.0136203 10.7363797,17.4166667 10,17.4166667 Z M10,18.4166667 C10.1840949,18.4166667 10.3333333,18.5659051 10.3333333,18.75 C10.3333333,18.9340949 10.1840949,19.0833333 10,19.0833333 C9.81590508,19.0833333 9.66666667,18.9340949 9.66666667,18.75 C9.66666667,18.5659051 9.81590508,18.4166667 10,18.4166667 Z" id="Path"></path>
            <path d="M14.1666667,17.4166667 C13.430287,17.4166667 12.8333333,18.0136203 12.8333333,18.75 C12.8333333,19.4863797 13.430287,20.0833333 14.1666667,20.0833333 C14.9030463,20.0833333 15.5,19.4863797 15.5,18.75 C15.5,18.0136203 14.9030463,17.4166667 14.1666667,17.4166667 Z M14.1666667,18.4166667 C14.3507616,18.4166667 14.5,18.5659051 14.5,18.75 C14.5,18.9340949 14.3507616,19.0833333 14.1666667,19.0833333 C13.9825718,19.0833333 13.8333333,18.9340949 13.8333333,18.75 C13.8333333,18.5659051 13.9825718,18.4166667 14.1666667,18.4166667 Z" id="Path"></path>
            <path d="M5.83333333,17.4166667 C5.09695367,17.4166667 4.5,18.0136203 4.5,18.75 C4.5,19.4863797 5.09695367,20.0833333 5.83333333,20.0833333 C6.569713,20.0833333 7.16666667,19.4863797 7.16666667,18.75 C7.16666667,18.0136203 6.569713,17.4166667 5.83333333,17.4166667 Z M5.83333333,18.4166667 C6.01742825,18.4166667 6.16666667,18.5659051 6.16666667,18.75 C6.16666667,18.9340949 6.01742825,19.0833333 5.83333333,19.0833333 C5.64923842,19.0833333 5.5,18.9340949 5.5,18.75 C5.5,18.5659051 5.64923842,18.4166667 5.83333333,18.4166667 Z" id="Path"></path>
            <path d="M9.96860324,15.7509867 C11.6873143,15.6428494 13.3635429,16.3133408 14.5335493,17.5769652 C14.7211613,17.7795889 14.7089919,18.0959374 14.5063682,18.2835493 C14.3037445,18.4711613 13.987396,18.4589919 13.799784,18.2563682 C12.8339375,17.2132396 11.4502019,16.6597453 9.96860324,16.7490133 C8.5497981,16.6597453 7.16606252,17.2132396 6.200216,18.2563682 C6.01260405,18.4589919 5.69625554,18.4711613 5.49363184,18.2835493 C5.29100813,18.0959374 5.27883871,17.7795889 5.46645066,17.5769652 C6.63645709,16.3133408 8.31268566,15.6428494 9.96860324,15.7509867 Z" id="Path"></path>
            <path d="M2.5,6.16666667 C1.30338304,6.16666667 0.333333333,7.13671638 0.333333333,8.33333333 C0.333333333,8.83959435 0.743738979,9.25 1.25,9.25 L3.75,9.25 C4.25626102,9.25 4.66666667,8.83959435 4.66666667,8.33333333 C4.66666667,7.13671638 3.69661696,6.16666667 2.5,6.16666667 Z M2.62712119,7.17351251 C3.16990288,7.23232912 3.60100421,7.66343046 3.65982083,8.20621215 L3.661,8.25 L1.338,8.25 L1.33333333,8.33333333 C1.33333333,7.68900113 1.85566779,7.16666667 2.5,7.16666667 L2.62712119,7.17351251 Z" id="Path"></path>
            <path d="M17.5,6.16666667 C16.303383,6.16666667 15.3333333,7.13671638 15.3333333,8.33333333 C15.3333333,8.83959435 15.743739,9.25 16.25,9.25 L18.75,9.25 C19.256261,9.25 19.6666667,8.83959435 19.6666667,8.33333333 C19.6666667,7.13671638 18.696617,6.16666667 17.5,6.16666667 Z M17.6271212,7.17351251 C18.1699029,7.23232912 18.6010042,7.66343046 18.6598208,8.20621215 L18.661,8.25 L16.338,8.25 L16.3333333,8.33333333 C16.3333333,7.68900113 16.8556678,7.16666667 17.5,7.16666667 L17.6271212,7.17351251 Z" id="Path"></path>
            <path d="M9.98987627,10.7501025 C8.45842514,10.7186785 6.91148984,10.9323501 5.42641014,11.3832312 C4.86842313,11.5676127 4.49966822,12.078279 4.49999972,12.6536216 L4.49999972,13.75 C4.49999972,14.4863797 5.09695367,15.0833333 5.83333333,15.0833333 L14.1666667,15.0833333 C14.9030463,15.0833333 15.4999997,14.4863797 15.4999997,13.75 L15.4999997,12.6533333 C15.500332,12.0782793 15.131577,11.5676127 14.5853333,11.3869551 L14.5735899,11.3832312 C13.0885101,10.9323501 11.5415748,10.7186785 9.98987627,10.7501025 Z M10.477832,11.74858 C11.6140507,11.7652208 12.7331186,11.919578 13.819521,12.2081979 L14.2713334,12.3363782 C14.4078943,12.3815426 14.4999998,12.5092091 14.4999998,12.6530447 L14.4999998,13.75 C14.4999998,13.934095 14.3507615,14.0833333 14.1666667,14.0833333 L5.83333333,14.0833333 C5.64923836,14.0833333 5.4999998,13.9340949 5.4999998,13.75 L5.4999998,12.6533333 C5.4999998,12.5092093 5.59210564,12.3815426 5.72866658,12.3363782 C6.94880253,11.966077 8.2237773,11.7675514 9.50796369,11.74858 L10.477832,11.74858 Z" id="Path"></path>
        </g>
    </g>
</svg>