<?xml version="1.0" encoding="UTF-8"?>
<svg width="20px" height="20px" viewBox="0 0 20 20" version="1.1" xmlns="http://www.w3.org/2000/svg" xmlns:xlink="http://www.w3.org/1999/xlink">
    <title>ICONS/furnitue/KlubSetStolovi</title>
    <g id="ICONS/furnitue/KlubSetStolovi" stroke="none" stroke-width="1" fill="none" fill-rule="evenodd">
        <g id="streamline-icon-decoration-flowers-table@20x20" fill="#707070" fill-rule="nonzero">
            <path d="M19.5833333,14.0833333 L0.416666667,14.0833333 C0.140524292,14.0833333 -0.0833333333,14.307191 -0.0833333333,14.5833333 L-0.0833333333,17.0833333 C-0.0833333333,17.3594757 0.140524292,17.5833333 0.416666667,17.5833333 L19.5833333,17.5833333 C19.8594757,17.5833333 20.0833333,17.3594757 20.0833333,17.0833333 L20.0833333,14.5833333 C20.0833333,14.307191 19.8594757,14.0833333 19.5833333,14.0833333 Z M19.083,15.083 L19.083,16.583 L0.916,16.583 L0.916,15.083 L19.083,15.083 Z" id="Path"></path>
            <path d="M2.88611974,16.8597265 C3.00961436,16.6127373 3.30995088,16.5126251 3.55694013,16.6361197 C3.77648613,16.7458927 3.87998111,16.9953927 3.81353532,17.2229503 L3.78054693,17.3069401 L2.53054693,19.8069401 C2.4070523,20.0539294 2.10671578,20.1540416 1.85972654,20.0305469 C1.64018054,19.9207739 1.53668556,19.671274 1.60313134,19.4437163 L1.63611974,19.3597265 L2.88611974,16.8597265 Z" id="Path"></path>
            <path d="M16.4430599,16.6361197 C16.6626059,16.5263467 16.9243028,16.5932507 17.0664814,16.7829419 L17.1138803,16.8597265 L18.3638803,19.3597265 C18.4873749,19.6067158 18.3872627,19.9070523 18.1402735,20.0305469 C17.9207275,20.1403199 17.6590305,20.073416 17.5168519,19.8837247 L17.4694531,19.8069401 L16.2194531,17.3069401 C16.0959584,17.0599509 16.1960706,16.7596144 16.4430599,16.6361197 Z" id="Path"></path>
            <path d="M15.1136163,7.41666667 L14.0533333,7.41666667 C13.6522082,7.41689359 13.2980013,7.67753639 13.1785504,8.06016675 C12.6734658,9.67572886 12.4165566,11.3588167 12.4166666,13.0516992 L12.4166666,14.5833333 C12.4166666,14.8594757 12.6405243,15.0833333 12.9166666,15.0833333 L16.25,15.0833333 C16.5261424,15.0833333 16.7500001,14.8594757 16.7500001,14.5833333 L16.7500001,13.0516667 C16.75011,11.3588167 16.4932009,9.67572886 15.9880547,8.05996959 C15.8686654,7.67753639 15.5144585,7.41689359 15.1136163,7.41666667 Z M15.05,8.416 L15.1832275,8.86687958 C15.5592492,10.2292859 15.750092,11.6368219 15.7500001,13.0516342 L15.7500001,14.083 L13.416,14.083 L13.4166666,13.0516667 L13.4255709,12.5215177 C13.4671781,11.2856481 13.6544148,10.0590028 13.9833959,8.86701809 L14.116,8.416 L15.05,8.416 Z" id="Path"></path>
            <path d="M17.9797799,0.0631132761 C18.1750421,-0.13214887 18.4916246,-0.13214887 18.6868867,0.0631132761 C18.8604531,0.236679628 18.8797382,0.506104029 18.7447422,0.70097217 L18.6868867,0.770220057 L17.8194074,1.63769937 C16.8926579,2.56455727 16.2143776,3.70772193 15.8444393,4.96140475 L15.7584132,5.27706669 L15.0684132,8.03790003 C15.0014579,8.30580224 14.7300022,8.46870186 14.4621,8.40174653 C14.2239647,8.34223067 14.0687944,8.1211343 14.0842769,7.88458026 L14.0982535,7.79543331 L14.7882881,5.03446133 C15.1491785,3.59221641 15.8675595,2.26615302 16.8747547,1.17755711 L17.1122799,0.930613276 L17.9797799,0.0631132761 Z" id="Path"></path>
            <path d="M15.5560351,0.000606923172 C15.7602871,-0.135524246 16.0282573,-0.10156299 16.1928451,0.0690488502 L16.2493931,0.13936847 L17.2768931,1.68103514 C17.4300406,1.91081859 17.367915,2.22124551 17.1381315,2.37439308 C16.9338796,2.51052425 16.6659093,2.47656299 16.5013216,2.30595115 L16.4447736,2.23563153 L15.4172736,0.693964863 C15.264126,0.464181412 15.3262517,0.153754488 15.5560351,0.000606923172 Z" id="Path"></path>
            <path d="M7.86675929,2.93222872 C9.36487276,2.1600649 11.16374,2.26014096 12.5674205,3.19402183 C13.532398,3.83757619 14.2724936,4.76289184 14.6890111,5.8405503 L14.7793416,6.09188612 L15.1768416,7.28438612 C15.2641655,7.54635778 15.1225855,7.82951776 14.8606139,7.91684165 C14.6277502,7.99446288 14.3781451,7.89122179 14.2642218,7.68332997 L14.2281584,7.60061388 L13.8305777,6.40787161 C13.5064297,5.43376967 12.8666816,4.59558856 12.0130415,4.02628592 C10.9119694,3.29373339 9.50044123,3.2152061 8.32490737,3.82110461 C8.07945107,3.94761871 7.77790949,3.851197 7.65139539,3.60574071 C7.52488129,3.36028441 7.621303,3.05874282 7.86675929,2.93222872 Z" id="Path"></path>
            <path d="M9.77633865,-0.0305196497 C9.99587126,-0.140319429 10.2575763,-0.0734473747 10.3997781,0.116226497 L10.4471863,0.193005319 L11.813853,2.92550532 C11.9373777,3.1724795 11.8373022,3.47282823 11.590328,3.59635298 C11.3707954,3.70615276 11.1090903,3.63928071 10.9668885,3.44960684 L10.9194804,3.37282801 L9.55281368,0.640328014 C9.42928893,0.393353831 9.52936447,0.0930051017 9.77633865,-0.0305196497 Z" id="Path"></path>
            <path d="M15.679023,2.81341098 C15.8152152,2.60919966 16.0756378,2.53749577 16.2931803,2.63169129 L16.3724224,2.67485636 L18.586589,4.15152303 C18.8163268,4.30473917 18.8783598,4.61518462 18.7251436,4.84492235 C18.5889515,5.04913367 18.3285288,5.12083756 18.1109863,5.02664204 L18.0317443,4.98347697 L15.8175776,3.5068103 C15.5878399,3.35359417 15.5258069,3.04314872 15.679023,2.81341098 Z" id="Path"></path>
        </g>
    </g>
</svg>