<?xml version="1.0" encoding="UTF-8"?>
<svg width="20px" height="20px" viewBox="0 0 20 20" version="1.1" xmlns="http://www.w3.org/2000/svg" xmlns:xlink="http://www.w3.org/1999/xlink">
    <title>ICONS/furnitue/KomadniNamestaj</title>
    <g id="ICONS/furnitue/KomadniNamestaj" stroke="none" stroke-width="1" fill="none" fill-rule="evenodd">
        <g id="streamline-icon-armchair-1@20x20" fill="#707070" fill-rule="nonzero">
            <path d="M11.6708333,-0.0833333333 C13.2752114,-0.0833333333 14.7996532,0.61742518 15.8445043,1.83512609 C16.8312544,2.98511418 17.2972852,4.48789321 17.1408044,5.9872393 L17.1067074,6.25172164 L16.3275407,11.3258883 C16.2856288,11.5988315 16.0303882,11.7861194 15.757445,11.7442074 C15.5148288,11.7069523 15.339891,11.5011413 15.3334472,11.2641688 L15.3391259,11.1741117 L16.1182969,6.09991667 C16.3176122,4.80241242 15.9404205,3.48256165 15.0855889,2.48631528 C14.2841345,1.55227624 13.1378242,0.989986424 11.9161032,0.923348786 L11.6708333,0.916666667 L8.32666667,0.916666667 C7.01404986,0.916666667 5.76679582,1.49000697 4.9119111,2.48631528 C4.11050651,3.42029625 3.72890256,4.63869515 3.8485367,5.85628458 L3.87917083,6.09970717 L4.66083749,11.1738738 C4.70288082,11.4467968 4.51571585,11.7021275 4.24279283,11.7441708 C4.0001946,11.7815427 3.7714965,11.6378117 3.69414137,11.4137275 L3.67249584,11.3261262 L2.89079695,6.25175 C2.64718943,4.66591147 3.10820153,3.05276054 4.15299567,1.83512609 C5.13979955,0.685075231 6.55438637,-0.00387577504 8.060079,-0.0768763471 L8.32666667,-0.0833333333 L11.6708333,-0.0833333333 Z" id="Path"></path>
            <path d="M5.41666667,18.25 C5.66212656,18.25 5.86627504,18.4268752 5.908611,18.6601244 L5.91666667,18.75 L5.91666667,19.5833333 C5.91666667,19.8594757 5.69280904,20.0833333 5.41666667,20.0833333 C5.17120678,20.0833333 4.9670583,19.9064582 4.92472234,19.673209 L4.91666667,19.5833333 L4.91666667,18.75 C4.91666667,18.4738576 5.14052429,18.25 5.41666667,18.25 Z" id="Path"></path>
            <path d="M14.5833333,18.25 C14.8287932,18.25 15.0329417,18.4268752 15.0752777,18.6601244 L15.0833333,18.75 L15.0833333,19.5833333 C15.0833333,19.8594757 14.8594757,20.0833333 14.5833333,20.0833333 C14.3378734,20.0833333 14.133725,19.9064582 14.091389,19.673209 L14.0833333,19.5833333 L14.0833333,18.75 C14.0833333,18.4738576 14.307191,18.25 14.5833333,18.25 Z" id="Path"></path>
            <path d="M17.7292038,9.92172056 C15.9294141,10.0190417 14.5,11.5092593 14.5,13.3333333 L14.5,13.822 L14.3031388,13.7595335 L14.0350813,13.6835492 C13.0148123,13.4114775 11.6826233,13.25 10,13.25 C8.3173767,13.25 6.98518772,13.4114775 5.96491867,13.6835492 L5.57426318,13.7976282 L5.499,13.822 L5.5,13.3333333 C5.5,11.4463602 3.970306,9.91665642 2.08333333,9.91665642 C1.0502051,9.91521621 0.159368434,10.6443716 -0.0435343013,11.6580948 C-0.246437148,12.6718185 0.295125244,13.6876772 1.24986864,14.0842505 C1.45152491,14.1681162 1.58312952,14.3651812 1.58333355,14.5838 L1.58333333,16.25 C1.58333333,17.9068542 2.92647908,19.25 4.58333333,19.25 L15.4166667,19.25 C17.0735209,19.25 18.4166667,17.9068542 18.4166667,16.25 L18.4166667,14.5833333 C18.4163749,14.364636 18.5474244,14.167891 18.7487272,14.0841414 C19.7028304,13.6878315 20.2443923,12.6725822 20.0420763,11.6591584 C19.8397605,10.6457352 18.9498877,9.91625201 17.9164668,9.91665642 L17.7292038,9.92172056 Z M17.9168665,10.9166622 C18.4733249,10.9164426 18.9524877,11.3092417 19.0614271,11.8549314 C19.1619865,12.358645 18.9212492,12.8631961 18.4794303,13.1057279 L18.3648676,13.16075 C17.7899444,13.3999399 17.4158354,13.9615906 17.4166671,14.5840015 L17.4166667,16.25 C17.4166667,17.3545695 16.5212362,18.25 15.4166667,18.25 L4.58333333,18.25 C3.47876383,18.25 2.58333333,17.3545695 2.58333333,16.25 L2.58333333,14.5833333 C2.5827971,14.0085433 2.26359821,13.4864212 1.7626191,13.2215684 L1.63366645,13.1608334 C1.11937209,12.9472101 0.827761575,12.4002092 0.937016953,11.854358 C1.04627233,11.3085068 1.52595422,10.9158841 2.0826324,10.9166622 C3.41802107,10.9166622 4.5,11.9986448 4.5,13.3333333 L4.5,14.5833333 C4.5,14.982681 4.94507273,15.2208767 5.2773501,14.9993585 L5.32111829,14.972769 L5.45255977,14.9078239 C5.47945825,14.8958355 5.50889026,14.8833128 5.5409124,14.8703273 L5.76457981,14.7874335 C5.89240723,14.7437826 6.04456489,14.6972552 6.22258133,14.6497841 C7.15543728,14.4010225 8.4013733,14.25 10,14.25 C11.5986267,14.25 12.8445627,14.4010225 13.7774187,14.6497841 C13.9554351,14.6972552 14.1075928,14.7437826 14.2354202,14.7874335 L14.4590876,14.8703273 C14.4911097,14.8833128 14.5205417,14.8958355 14.5474402,14.9078239 L14.6788817,14.972769 C14.6958725,14.9823336 14.7104431,14.9912206 14.7226499,14.9993585 C15.0549273,15.2208767 15.5,14.982681 15.5,14.5833333 L15.5,13.3333333 C15.5,12.0520323 16.4971518,11.0036277 17.7577702,10.9218054 L17.9168665,10.9166622 Z" id="Path"></path>
            <path d="M12.2226499,6.25064152 C12.4524142,6.09746529 12.7628489,6.15955222 12.9160251,6.38931657 C13.0521818,6.59355154 13.018254,6.86152603 12.8476627,7.02613506 L12.7773501,7.08269181 L12.151,7.5 L12.7773501,7.91730819 C12.9815851,8.05346483 13.0533342,8.31387507 12.9591765,8.5314339 L12.9160251,8.61068343 C12.7798685,8.8149184 12.5194583,8.88666752 12.3018994,8.79250979 L12.2226499,8.74935848 L10.9726499,7.91602515 C10.7027712,7.73610603 10.6782368,7.35923054 10.8990466,7.14350118 L10.9726499,7.08397485 L12.2226499,6.25064152 Z" id="Path"></path>
            <path d="M7.08397485,6.38931657 C7.2201315,6.1850816 7.48054173,6.11333248 7.69810057,6.20749021 L7.7773501,6.25064152 L9.0273501,7.08397485 C9.29722877,7.26389397 9.32176319,7.64076946 9.10095337,7.85649882 L9.0273501,7.91602515 L7.7773501,8.74935848 C7.54758575,8.90253471 7.23715108,8.84044778 7.08397485,8.61068343 C6.9478182,8.40644846 6.98174603,8.13847397 7.15233734,7.97386494 L7.2226499,7.91730819 L7.848,7.5 L7.2226499,7.08269181 C7.01841493,6.94653517 6.94666581,6.68612493 7.04082354,6.4685661 L7.08397485,6.38931657 Z" id="Path"></path>
            <path d="M10,5.75 C9.03350169,5.75 8.25,6.53350169 8.25,7.5 C8.25,8.46649831 9.03350169,9.25 10,9.25 C10.9664983,9.25 11.75,8.46649831 11.75,7.5 C11.75,6.53350169 10.9664983,5.75 10,5.75 Z M10,6.75 C10.4142136,6.75 10.75,7.08578644 10.75,7.5 C10.75,7.91421356 10.4142136,8.25 10,8.25 C9.58578644,8.25 9.25,7.91421356 9.25,7.5 C9.25,7.08578644 9.58578644,6.75 10,6.75 Z" id="Path"></path>
        </g>
    </g>
</svg>