<?xml version="1.0" encoding="UTF-8"?>
<svg width="20px" height="20px" viewBox="0 0 20 20" version="1.1" xmlns="http://www.w3.org/2000/svg" xmlns:xlink="http://www.w3.org/1999/xlink">
    <title>ICONS/furnitue/KomodeFiokariNocni</title>
    <g id="ICONS/furnitue/KomodeFiokariNocni" stroke="none" stroke-width="1" fill="none" fill-rule="evenodd">
        <g id="streamline-icon-night-stand-lamp@20x20" transform="translate(2.000000, 0.000000)" fill="#707070" fill-rule="nonzero">
            <path d="M15.0833333,11.5833333 L0.916666667,11.5833333 C0.180287,11.5833333 -0.416666667,12.180287 -0.416666667,12.9166667 L-0.416666667,19.1666667 C-0.416666667,19.6729277 -0.00626102068,20.0833333 0.5,20.0833333 L15.5,20.0833333 C16.006261,20.0833333 16.4166667,19.6729277 16.4166667,19.1666667 L16.4166667,12.9166667 C16.4166667,12.180287 15.819713,11.5833333 15.0833333,11.5833333 Z M15.0833333,12.5833333 L15.1505116,12.5901055 C15.302406,12.6211876 15.4166667,12.7555836 15.4166667,12.9166667 L15.416,19.083 L0.583,19.083 L0.583333333,12.9166667 C0.583333333,12.7325718 0.73257175,12.5833333 0.916666667,12.5833333 L15.0833333,12.5833333 Z" id="Path"></path>
            <path d="M8,9.08333333 C6.5732644,9.08333333 5.41666667,10.2399311 5.41666667,11.6666667 L5.41666667,12.0833333 C5.41666667,12.3594757 5.64052429,12.5833333 5.91666667,12.5833333 L10.0833333,12.5833333 C10.3594757,12.5833333 10.5833333,12.3594757 10.5833333,12.0833333 L10.5833333,11.6666667 C10.5833333,10.2399311 9.4267356,9.08333333 8,9.08333333 Z M8.14411561,10.0898039 C8.90356225,10.1583264 9.50834026,10.7631044 9.57686277,11.5225511 L9.579,11.583 L6.42,11.583 L6.41666667,11.6666667 C6.41666667,10.7922158 7.12554915,10.0833333 8,10.0833333 L8.14411561,10.0898039 Z" id="Path"></path>
            <path d="M8,5.75 C8.24545989,5.75 8.44960837,5.92687516 8.49194433,6.16012437 L8.5,6.25 L8.5,9.58333333 C8.5,9.85947571 8.27614237,10.0833333 8,10.0833333 C7.75454011,10.0833333 7.55039163,9.90645817 7.50805567,9.67320897 L7.5,9.58333333 L7.5,6.25 C7.5,5.97385763 7.72385763,5.75 8,5.75 Z" id="Path"></path>
            <path d="M9.68464208,-0.0830101134 L6.31146069,-0.0828546919 C5.85232678,-0.0627505062 5.4608236,0.256324592 5.34849773,0.701960123 L4.26534161,5.7373807 C4.20248406,5.96651054 4.25981653,6.2390586 4.42575051,6.44448067 C4.5916845,6.64990274 4.84608146,6.76326783 5.10978056,6.74930005 L10.9166667,6.75 C11.1539185,6.76326783 11.4083155,6.64990274 11.5742495,6.44448067 C11.7401835,6.2390586 11.7975159,5.96651054 11.7284067,5.71164542 L10.6597417,0.719435389 C10.5424563,0.253413051 10.1467967,-0.0663845262 9.68464208,-0.0830101134 Z M6.35520597,0.916188025 L9.66666667,0.916666667 C9.67540434,0.925732378 9.68313505,0.93503141 9.68603693,0.946528632 L10.714,5.75 L5.284,5.75 L6.32215839,0.92928597 L6.33886314,0.919915764 C6.34372233,0.917981171 6.34931964,0.916445771 6.35520597,0.916188025 Z" id="Path"></path>
            <path d="M15.9166667,15.75 C16.192809,15.75 16.4166667,15.9738576 16.4166667,16.25 C16.4166667,16.4954599 16.2397915,16.6996084 16.0065423,16.7419443 L15.9166667,16.75 L0.0833333333,16.75 C-0.192809042,16.75 -0.416666667,16.5261424 -0.416666667,16.25 C-0.416666667,16.0045401 -0.239791506,15.8003916 -0.00654229902,15.7580557 L0.0833333333,15.75 L15.9166667,15.75 Z" id="Path"></path>
            <path d="M8,13.4583333 L8.09611664,13.4647996 C8.44185467,13.511703 8.70833333,13.8080651 8.70833333,14.1666667 C8.70833333,14.5578684 8.3912017,14.875 8,14.875 C7.6087983,14.875 7.29166667,14.5578684 7.29166667,14.1666667 C7.29166667,13.8080651 7.55814533,13.511703 7.90388336,13.4647996 L8,13.4583333 Z" id="Path"></path>
            <path d="M15.9166667,17.4166667 C16.192809,17.4166667 16.4166667,17.6405243 16.4166667,17.9166667 C16.4166667,18.1621266 16.2397915,18.366275 16.0065423,18.408611 L15.9166667,18.4166667 L0.0833333333,18.4166667 C-0.192809042,18.4166667 -0.416666667,18.192809 -0.416666667,17.9166667 C-0.416666667,17.6712068 -0.239791506,17.4670583 -0.00654229902,17.4247223 L0.0833333333,17.4166667 L15.9166667,17.4166667 Z" id="Path"></path>
            <path d="M10.0833333,5.75 C10.3287932,5.75 10.5329417,5.92687516 10.5752777,6.16012437 L10.5833333,6.25 L10.5833333,7.91666667 C10.5833333,8.19280904 10.3594757,8.41666667 10.0833333,8.41666667 C9.83787344,8.41666667 9.63372496,8.23979151 9.591389,8.0065423 L9.58333333,7.91666667 L9.58333333,6.25 C9.58333333,5.97385763 9.80719096,5.75 10.0833333,5.75 Z" id="Path"></path>
        </g>
    </g>
</svg>