<svg width="24px" height="24px" viewBox="0 0 24 24" version="1.1" xmlns="http://www.w3.org/2000/svg" xmlns:xlink="http://www.w3.org/1999/xlink" style=""> <title>ICONS/cart-icon</title> <g id="ICONS/cart-icon" stroke="none" stroke-width="1" fill="none" fill-rule="evenodd"> <path d="M18.5,12.999 C21.5371424,12.999 24,15.4618576 24,18.499 C24,21.5361424 21.5371424,23.999 18.5,23.999 C15.4628576,23.999 13,21.5361424 13,18.499 C13,15.4618576 15.4628576,12.999 18.5,12.999 Z M18.5,13.999 C16.0151424,13.999 14,16.0141424 14,18.499 C14,20.9838576 16.0151424,22.999 18.5,22.999 C20.9848576,22.999 23,20.9838576 23,18.499 C23,16.0141424 20.9848576,13.999 18.5,13.999 Z M3.208,0 C3.85783738,0 4.42779184,0.417172125 4.63008877,1.02368626 L4.66770583,1.15646863 L5.807,5.999 L22.112,6 C22.2209274,6 22.3289065,6.01163583 22.4338293,6.03469953 L22.5886577,6.07783999 C23.3274813,6.32505628 23.7464848,7.09191755 23.5745427,7.83607163 L23.5353123,7.97520202 L22.4583123,11.204202 C22.3709397,11.4661574 22.0877534,11.6076848 21.825798,11.5203123 C21.5929487,11.4426478 21.4552525,11.2102662 21.4888925,10.9756051 L21.5096877,10.887798 L22.5867489,7.65861463 C22.6742032,7.39675147 22.5328989,7.11367896 22.269131,7.02541438 L22.1925208,7.00637602 L22.112,7 L6.042,6.999 L7.689,14 L11.975,14.001 C12.2204599,14.001 12.4246084,14.1778752 12.4669443,14.4111244 L12.475,14.501 C12.475,14.7464599 12.2981248,14.9506084 12.0648756,14.9929443 L11.975,15.001 L7.924,15 L8.39599755,17 L12,17 C12.2761424,17 12.5,17.2238576 12.5,17.5 C12.5,17.7454599 12.3231248,17.9496084 12.0898756,17.9919443 L12,18 L9.73273637,17.9998713 C9.90270968,18.2938896 10,18.6351349 10,18.999 C10,20.1031424 9.10414237,20.999 8,20.999 C6.89585763,20.999 6,20.1031424 6,18.999 C6,18.1071355 6.58450279,17.3511665 7.39114848,17.0934529 L3.6942068,1.38515947 C3.64788001,1.18761503 3.48803228,1.04088564 3.29334235,1.00728993 L3.208,1 L0.5,1 C0.223857625,1 0,0.776142375 0,0.5 C0,0.254540111 0.176875161,0.0503916296 0.410124368,0.00805566941 L0.5,0 L3.208,0 Z M17.9361242,19.7293936 L20.0931242,16.7093936 C20.2536216,16.4846823 20.565895,16.4326267 20.7906064,16.5931242 C20.9903497,16.7357886 21.0536738,16.9983747 20.9525574,17.2127878 L20.9068758,17.2906064 L18.747368,20.3140858 C18.7160582,20.3571368 18.6810806,20.3980262 18.6444565,20.434648 C18.284449,20.7965016 17.7163048,20.8248643 17.3237147,20.5197731 L17.2294466,20.4365534 L16.1464466,19.3535534 C15.9511845,19.1582912 15.9511845,18.8417088 16.1464466,18.6464466 C16.320013,18.4728803 16.5894374,18.4535951 16.7843055,18.5885912 L16.8535534,18.6464466 L17.9361242,19.7293936 L20.0931242,16.7093936 L17.9361242,19.7293936 Z M7.99292755,17.999949 C7.44814237,17.999 7,18.4471424 7,18.999 C7,19.5508576 7.44814237,19.999 8,19.999 C8.55185763,19.999 9,19.5508576 9,18.999 C9,18.4925561 8.62258021,18.0734598 8.13394203,18.0079126 L7.99292755,17.999949 L7.99292755,17.999949 Z" id="Shape" fill="rgb(112,112,112)" fill-rule="nonzero"/> </g> </svg>