<?xml version="1.0" encoding="UTF-8"?>
<svg width="20px" height="20px" viewBox="0 0 20 20" version="1.1" xmlns="http://www.w3.org/2000/svg" xmlns:xlink="http://www.w3.org/1999/xlink">
    <title>ICONS/furnitue/Kreveti</title>
    <g id="ICONS/furnitue/Kreveti" stroke="none" stroke-width="1" fill="none" fill-rule="evenodd">
        <g id="streamline-icon-hotel-single-bed-2@20x20" fill="#707070" fill-rule="nonzero">
            <path d="M5.97166667,3.25 C6.24780904,3.25 6.47166667,3.47385763 6.47166667,3.75 C6.47166667,3.99545989 6.29479151,4.19960837 6.0615423,4.24194433 L5.97166667,4.25 L4.11,4.25 L1.11,13.25 L18.889,13.25 L15.889,4.25 L14.045,4.25 C13.7995401,4.25 13.5953916,4.07312484 13.5530557,3.83987563 L13.545,3.75 C13.545,3.50454011 13.7218752,3.30039163 13.9551244,3.25805567 L14.045,3.25 L16.25,3.25 C16.4344702,3.25 16.6012006,3.3511784 16.6879312,3.50866072 L16.7243416,3.59188612 L20.057675,13.5918861 C20.1566033,13.8886712 19.9623533,14.1943488 19.6664197,14.243234 L19.5833333,14.25 L0.416666667,14.25 C0.103827709,14.25 -0.124736241,13.9690545 -0.077530433,13.6728484 L-0.0576749824,13.5918861 L3.27565835,3.59188612 C3.33399294,3.41688234 3.48270399,3.2907034 3.65953147,3.25822378 L3.75,3.25 L5.97166667,3.25 Z" id="Path"></path>
            <path d="M19.5833333,13.25 C19.8287932,13.25 20.0329417,13.4268752 20.0752777,13.6601244 L20.0833333,13.75 L20.0833333,17.5 C20.0833333,18.4181734 19.3762231,19.1711923 18.4768605,19.2441988 L18.3333333,19.25 L1.66666667,19.25 C0.74849327,19.25 -0.00452567299,18.5428897 -0.0775321338,17.6435272 L-0.0833333333,17.5 L-0.0833333333,13.75 C-0.0833333333,13.4738576 0.140524292,13.25 0.416666667,13.25 C0.662126555,13.25 0.866275037,13.4268752 0.908610997,13.6601244 L0.916666667,13.75 L0.916666667,17.5 C0.916666667,17.8796958 1.19882055,18.193491 1.56489611,18.2431534 L1.66666667,18.25 L18.3333333,18.25 C18.7130291,18.25 19.0268243,17.9678461 19.0764867,17.6017706 L19.0833333,17.5 L19.0833333,13.75 C19.0833333,13.4738576 19.307191,13.25 19.5833333,13.25 Z" id="Path"></path>
            <path d="M17.3608333,6.58333333 C17.6369757,6.58333333 17.8608333,6.80719096 17.8608333,7.08333333 C17.8608333,7.32879322 17.6839582,7.5329417 17.450709,7.57527766 L17.3608333,7.58333333 L2.63833333,7.58333333 C2.36219096,7.58333333 2.13833333,7.35947571 2.13833333,7.08333333 C2.13833333,6.83787344 2.31520849,6.63372496 2.5484577,6.591389 L2.63833333,6.58333333 L17.3608333,6.58333333 Z" id="Path"></path>
            <path d="M13.4503796,2.41666667 L6.25,2.41666667 C6.03438367,2.41666667 5.84305286,2.55488714 5.77531492,2.75958685 L5.12948158,4.71125351 C5.03662434,4.99004459 5.08368078,5.29749351 5.25624114,5.53653502 C5.4288015,5.77557653 5.70580231,5.91703217 6.00062053,5.91666667 L14.005,5.91666667 C14.2991977,5.91703217 14.5761985,5.77557653 14.7487589,5.53653502 C14.9213192,5.29749351 14.9683757,4.99004459 14.8752128,4.71033295 L14.3193179,3.04348164 C14.1947537,2.6694893 13.8447657,2.41696626 13.4503796,2.41666667 Z M13.389,3.416 L13.889,4.916 L6.114,4.916 L6.611,3.416 L13.389,3.416 Z" id="Path"></path>
            <path d="M15,-0.0833333333 C15.9181734,-0.0833333333 16.6711923,0.62377694 16.7441988,1.52313946 L16.75,1.66666667 L16.75,3.75 C16.75,4.02614237 16.5261424,4.25 16.25,4.25 C16.0045401,4.25 15.8003916,4.07312484 15.7580557,3.83987563 L15.75,3.75 L15.75,1.66666667 C15.75,1.2869709 15.4678461,0.973175706 15.1017706,0.923513283 L15,0.916666667 L5,0.916666667 C4.62030423,0.916666667 4.30650904,1.19882055 4.25684662,1.56489611 L4.25,1.66666667 L4.25,3.75 C4.25,4.02614237 4.02614237,4.25 3.75,4.25 C3.50454011,4.25 3.30039163,4.07312484 3.25805567,3.83987563 L3.25,3.75 L3.25,1.66666667 C3.25,0.74849327 3.95711027,-0.00452567299 4.85647279,-0.0775321338 L5,-0.0833333333 L15,-0.0833333333 Z" id="Path"></path>
            <path d="M2.91666667,18.25 C3.16212656,18.25 3.36627504,18.4268752 3.408611,18.6601244 L3.41666667,18.75 L3.41666667,19.5833333 C3.41666667,19.8594757 3.19280904,20.0833333 2.91666667,20.0833333 C2.67120678,20.0833333 2.4670583,19.9064582 2.42472234,19.673209 L2.41666667,19.5833333 L2.41666667,18.75 C2.41666667,18.4738576 2.64052429,18.25 2.91666667,18.25 Z" id="Path"></path>
            <path d="M17.0833333,18.25 C17.3287932,18.25 17.5329417,18.4268752 17.5752777,18.6601244 L17.5833333,18.75 L17.5833333,19.5833333 C17.5833333,19.8594757 17.3594757,20.0833333 17.0833333,20.0833333 C16.8378734,20.0833333 16.633725,19.9064582 16.591389,19.673209 L16.5833333,19.5833333 L16.5833333,18.75 C16.5833333,18.4738576 16.807191,18.25 17.0833333,18.25 Z" id="Path"></path>
        </g>
    </g>
</svg>