<?xml version="1.0" encoding="UTF-8"?>
<svg width="20px" height="20px" viewBox="0 0 20 20" version="1.1" xmlns="http://www.w3.org/2000/svg" xmlns:xlink="http://www.w3.org/1999/xlink">
    <title>ICONS/furnitue/Kuhinje</title>
    <g id="ICONS/furnitue/Kuhinje" stroke="none" stroke-width="1" fill="none" fill-rule="evenodd">
        <g id="streamline-icon-kitchen-storage@20x20" fill="#707070" fill-rule="nonzero">
            <path d="M8.75,5.91666667 C9.02614237,5.91666667 9.25,6.14052429 9.25,6.41666667 C9.25,6.66212656 9.07312484,6.86627504 8.83987563,6.908611 L8.75,6.91666667 L0.416666667,6.91666667 C0.140524292,6.91666667 -0.0833333333,6.69280904 -0.0833333333,6.41666667 C-0.0833333333,6.17120678 0.0935418272,5.9670583 0.326791034,5.92472234 L0.416666667,5.91666667 L8.75,5.91666667 Z" id="Path"></path>
            <path d="M19.5833333,7.41666667 C19.8594757,7.41666667 20.0833333,7.64052429 20.0833333,7.91666667 C20.0833333,8.16212656 19.9064582,8.36627504 19.673209,8.408611 L19.5833333,8.41666667 L11.25,8.41666667 C10.9738576,8.41666667 10.75,8.19280904 10.75,7.91666667 C10.75,7.67120678 10.9268752,7.4670583 11.1601244,7.42472234 L11.25,7.41666667 L19.5833333,7.41666667 Z" id="Path"></path>
            <path d="M14.1361197,6.0263932 C14.2596144,5.77940395 14.5599509,5.67929178 14.8069401,5.8027864 C15.0264861,5.9125594 15.1299811,6.16205933 15.0635353,6.38961698 L15.0305469,6.4736068 L14.1972136,8.14027346 C14.073719,8.38726271 13.7733825,8.48737489 13.5263932,8.36388026 C13.3068472,8.25410726 13.2033522,8.00460733 13.269798,7.77704968 L13.3027864,7.69305987 L14.1361197,6.0263932 Z" id="Path"></path>
            <path d="M16.6361197,6.0263932 C16.7596144,5.77940395 17.0599509,5.67929178 17.3069401,5.8027864 C17.5264861,5.9125594 17.6299811,6.16205933 17.5635353,6.38961698 L17.5305469,6.4736068 L16.6972136,8.14027346 C16.573719,8.38726271 16.2733825,8.48737489 16.0263932,8.36388026 C15.8068472,8.25410726 15.7033522,8.00460733 15.769798,7.77704968 L15.8027864,7.69305987 L16.6361197,6.0263932 Z" id="Path"></path>
            <path d="M3.75,3.41666667 L2.91666667,3.41666667 C2.180287,3.41666667 1.58333333,4.01362033 1.58333333,4.75 L1.58333333,6.41666667 C1.58333333,6.69280904 1.80719096,6.91666667 2.08333333,6.91666667 L4.58333333,6.91666667 C4.85947571,6.91666667 5.08333333,6.69280904 5.08333333,6.41666667 L5.08333333,4.75 C5.08333333,4.01362033 4.48637967,3.41666667 3.75,3.41666667 Z M3.75,4.41666667 L3.81717829,4.42343882 C3.96907267,4.4545209 4.08333333,4.58891695 4.08333333,4.75 L4.083,5.916 L2.583,5.916 L2.58333333,4.75 C2.58333333,4.56590508 2.73257175,4.41666667 2.91666667,4.41666667 L3.75,4.41666667 Z" id="Path" transform="translate(3.333333, 5.166667) rotate(180.000000) translate(-3.333333, -5.166667) "></path>
            <path d="M7.08333333,-0.0833333333 C7.32879322,-0.0833333333 7.5329417,0.0935418272 7.57527766,0.326791034 L7.58333333,0.416666667 L7.58333333,3.75 C7.58333333,4.02614237 7.35947571,4.25 7.08333333,4.25 C6.83787344,4.25 6.63372496,4.07312484 6.591389,3.83987563 L6.58333333,3.75 L6.58333333,0.416666667 C6.58333333,0.140524292 6.80719096,-0.0833333333 7.08333333,-0.0833333333 Z" id="Path"></path>
            <path d="M12.9166667,-0.0833333333 C13.1621266,-0.0833333333 13.366275,0.0935418272 13.408611,0.326791034 L13.4166667,0.416666667 L13.4166667,3.75 C13.4166667,4.02614237 13.192809,4.25 12.9166667,4.25 C12.6712068,4.25 12.4670583,4.07312484 12.4247223,3.83987563 L12.4166667,3.75 L12.4166667,0.416666667 C12.4166667,0.140524292 12.6405243,-0.0833333333 12.9166667,-0.0833333333 Z" id="Path"></path>
            <path d="M18.75,-0.0833333333 L1.25,-0.0833333333 C0.513620334,-0.0833333333 -0.0833333333,0.513620334 -0.0833333333,1.25 L-0.0833333333,3.75 C-0.0833333333,4.02614237 0.140524292,4.25 0.416666667,4.25 L19.5833333,4.25 C19.8594757,4.25 20.0833333,4.02614237 20.0833333,3.75 L20.0833333,1.25 C20.0833333,0.513620334 19.4863797,-0.0833333333 18.75,-0.0833333333 Z M18.75,0.916666667 L18.8171783,0.923438815 C18.9690727,0.954520904 19.0833333,1.08891695 19.0833333,1.25 L19.083,3.249 L0.916,3.249 L0.916666667,1.25 C0.916666667,1.06590508 1.06590508,0.916666667 1.25,0.916666667 L18.75,0.916666667 Z" id="Path"></path>
            <path d="M12.9166667,14.0833333 C13.1621266,14.0833333 13.366275,14.2602085 13.408611,14.4934577 L13.4166667,14.5833333 L13.4166667,19.5833333 C13.4166667,19.8594757 13.192809,20.0833333 12.9166667,20.0833333 C12.6712068,20.0833333 12.4670583,19.9064582 12.4247223,19.673209 L12.4166667,19.5833333 L12.4166667,14.5833333 C12.4166667,14.307191 12.6405243,14.0833333 12.9166667,14.0833333 Z" id="Path"></path>
            <path d="M7.08333333,14.0833333 C7.32879322,14.0833333 7.5329417,14.2602085 7.57527766,14.4934577 L7.58333333,14.5833333 L7.58333333,19.5833333 C7.58333333,19.8594757 7.35947571,20.0833333 7.08333333,20.0833333 C6.83787344,20.0833333 6.63372496,19.9064582 6.591389,19.673209 L6.58333333,19.5833333 L6.58333333,14.5833333 C6.58333333,14.307191 6.80719096,14.0833333 7.08333333,14.0833333 Z" id="Path"></path>
            <path d="M19.5833333,14.0833333 L0.416666667,14.0833333 C0.140524292,14.0833333 -0.0833333333,14.307191 -0.0833333333,14.5833333 L-0.0833333333,18.75 C-0.0833333333,19.4863797 0.513620334,20.0833333 1.25,20.0833333 L18.75,20.0833333 C19.4863797,20.0833333 20.0833333,19.4863797 20.0833333,18.75 L20.0833333,14.5833333 C20.0833333,14.307191 19.8594757,14.0833333 19.5833333,14.0833333 Z M0.916,15.083 L19.083,15.083 L19.0833333,18.75 C19.0833333,18.9340949 18.9340949,19.0833333 18.75,19.0833333 L1.25,19.0833333 L1.18282171,19.0765612 C1.03092733,19.0454791 0.916666667,18.9110831 0.916666667,18.75 L0.916,15.083 Z" id="Path"></path>
            <path d="M18.75,12.4166667 L1.25,12.4166667 C0.513620334,12.4166667 -0.0833333333,13.0136203 -0.0833333333,13.75 L-0.0833333333,14.5833333 C-0.0833333333,14.8594757 0.140524292,15.0833333 0.416666667,15.0833333 L19.5833333,15.0833333 C19.8594757,15.0833333 20.0833333,14.8594757 20.0833333,14.5833333 L20.0833333,13.75 C20.0833333,13.0136203 19.4863797,12.4166667 18.75,12.4166667 Z M18.75,13.4166667 L18.8171783,13.4234388 C18.9690727,13.4545209 19.0833333,13.5889169 19.0833333,13.75 L19.083,14.083 L0.916,14.083 L0.916666667,13.75 C0.916666667,13.5659051 1.06590508,13.4166667 1.25,13.4166667 L18.75,13.4166667 Z" id="Path"></path>
        </g>
    </g>
</svg>