<?xml version="1.0" encoding="UTF-8" standalone="no"?>
<!DOCTYPE svg PUBLIC "-//W3C//DTD SVG 1.1//EN" "http://www.w3.org/Graphics/SVG/1.1/DTD/svg11.dtd">
<svg width="100%" height="100%" viewBox="0 0 40 48" version="1.1" xmlns="http://www.w3.org/2000/svg" xmlns:xlink="http://www.w3.org/1999/xlink" xml:space="preserve" xmlns:serif="http://www.serif.com/" style="fill-rule:evenodd;clip-rule:evenodd;stroke-linejoin:round;stroke-miterlimit:2;">
    <g id="Layer_x0020_1" transform="matrix(1,0,0,1,15.2001,18.2396)">
        <g transform="matrix(4.16224,0,0,4.16224,-15.1784,-18.214)">
            <path d="M0.91,-0L8.69,-0C9.19,-0 9.6,0.409 9.6,0.91L9.6,10.61C9.6,11.11 9.19,11.52 8.69,11.52L0.91,11.52C0.409,11.52 0,11.11 0,10.61L0,0.91C0,0.409 0.409,-0 0.91,-0Z" style="fill:rgb(255,213,0);"/>
        </g>
        <g id="_2065929287744" transform="matrix(4.16224,0,0,4.16224,-15.1784,-18.214)">
            <path d="M9.6,4.515L9.6,3.495L4.8,0.723L-0,3.495L-0,4.515L4.8,1.743L4.8,1.744L9.6,4.515Z" style="fill:rgb(227,30,36);"/>
            <g>
                <path d="M3.186,8.527C3.148,8.765 3.061,8.947 2.926,9.072C2.792,9.197 2.616,9.26 2.399,9.26C2.132,9.26 1.933,9.153 1.803,8.938C1.674,8.723 1.608,8.394 1.608,7.95C1.608,7.491 1.677,7.153 1.812,6.937C1.949,6.72 2.16,6.612 2.447,6.612C2.649,6.612 2.811,6.666 2.933,6.773C3.055,6.88 3.138,7.044 3.183,7.264L2.701,7.417C2.689,7.281 2.661,7.181 2.619,7.119C2.576,7.056 2.516,7.025 2.437,7.025C2.331,7.025 2.256,7.091 2.212,7.223C2.168,7.356 2.146,7.598 2.146,7.95C2.146,8.291 2.167,8.525 2.209,8.652C2.252,8.78 2.324,8.844 2.427,8.844C2.504,8.844 2.565,8.804 2.612,8.726C2.658,8.647 2.69,8.529 2.709,8.37L3.186,8.527ZM3.317,9.21L3.317,6.666L4.445,6.666L4.445,7.065L3.838,7.065L3.838,7.675L4.445,7.675L4.445,8.067L3.838,8.067L3.838,8.8L4.445,8.8L4.445,9.21L3.317,9.21ZM4.688,9.21L4.688,6.666L5.207,6.666L5.562,7.878C5.581,7.938 5.609,8.044 5.646,8.196C5.684,8.348 5.729,8.538 5.78,8.764L5.815,8.764C5.772,8.455 5.739,8.182 5.715,7.945C5.691,7.708 5.679,7.531 5.679,7.415L5.679,6.666L6.15,6.666L6.15,9.21L5.64,9.21L5.295,8.076C5.29,8.06 5.282,8.033 5.271,7.995C5.174,7.68 5.105,7.405 5.063,7.169L5.032,7.169C5.073,7.475 5.105,7.749 5.126,7.989C5.148,8.23 5.159,8.43 5.159,8.59L5.159,9.21L4.688,9.21ZM6.914,8.41L7.294,8.41L7.17,7.608C7.161,7.544 7.152,7.462 7.143,7.363C7.134,7.264 7.127,7.155 7.122,7.033L7.089,7.033C7.078,7.177 7.067,7.304 7.057,7.412C7.046,7.52 7.038,7.589 7.032,7.618L6.914,8.41ZM6.228,9.21L6.837,6.666L7.398,6.666L7.991,9.21L7.444,9.21L7.37,8.797L6.837,8.797L6.748,9.21L6.228,9.21Z" style="fill:rgb(227,30,36);fill-rule:nonzero;"/>
                <path d="M1.75,6.335L1.75,5.114L2,5.114L2.17,5.696C2.179,5.725 2.193,5.776 2.21,5.849C2.229,5.922 2.25,6.013 2.275,6.121L2.292,6.121C2.271,5.973 2.255,5.842 2.244,5.728C2.232,5.614 2.226,5.529 2.226,5.474L2.226,5.114L2.452,5.114L2.452,6.335L2.207,6.335L2.042,5.791C2.039,5.784 2.036,5.77 2.03,5.752C1.983,5.601 1.95,5.469 1.93,5.356L1.916,5.356C1.935,5.503 1.95,5.634 1.961,5.749C1.971,5.865 1.977,5.961 1.977,6.038L1.977,6.335L1.75,6.335ZM2.88,5.952L3.063,5.952L3.003,5.567C2.999,5.535 2.994,5.496 2.99,5.449C2.986,5.401 2.983,5.349 2.98,5.29L2.964,5.29C2.959,5.36 2.954,5.42 2.949,5.472C2.944,5.524 2.94,5.557 2.937,5.571L2.88,5.952ZM2.551,6.335L2.843,5.114L3.112,5.114L3.397,6.335L3.135,6.335L3.099,6.137L2.843,6.137L2.8,6.335L2.551,6.335ZM3.381,6.249L3.518,6.081C3.535,6.109 3.55,6.129 3.564,6.14C3.578,6.151 3.594,6.156 3.611,6.156C3.639,6.156 3.66,6.141 3.673,6.11C3.686,6.078 3.693,6.031 3.693,5.966L3.693,5.114L3.945,5.114L3.945,6.007C3.945,6.12 3.919,6.206 3.867,6.268C3.815,6.329 3.741,6.36 3.645,6.36C3.588,6.36 3.538,6.35 3.494,6.332C3.451,6.314 3.413,6.286 3.381,6.249ZM4.379,5.594C4.385,5.596 4.391,5.596 4.397,5.596C4.402,5.597 4.41,5.597 4.419,5.597C4.475,5.597 4.519,5.583 4.55,5.557C4.581,5.53 4.596,5.493 4.596,5.445C4.596,5.396 4.58,5.358 4.548,5.331C4.515,5.305 4.469,5.291 4.409,5.291L4.379,5.293L4.379,5.594ZM4.379,6.145C4.382,6.145 4.387,6.146 4.394,6.146C4.4,6.147 4.405,6.147 4.407,6.147C4.475,6.147 4.527,6.131 4.563,6.1C4.6,6.069 4.618,6.024 4.618,5.966C4.618,5.905 4.6,5.858 4.564,5.825C4.528,5.793 4.475,5.778 4.404,5.778L4.379,5.778L4.379,6.145ZM4.138,6.335L4.138,5.114L4.459,5.114C4.586,5.114 4.682,5.139 4.748,5.19C4.813,5.24 4.846,5.314 4.846,5.41C4.846,5.479 4.827,5.537 4.787,5.581C4.749,5.626 4.693,5.656 4.62,5.67C4.702,5.691 4.764,5.728 4.805,5.78C4.847,5.832 4.868,5.899 4.868,5.982C4.868,6.09 4.832,6.176 4.76,6.24C4.688,6.303 4.59,6.335 4.466,6.335L4.138,6.335ZM5.25,5.718C5.25,5.885 5.259,6 5.278,6.063C5.296,6.126 5.327,6.158 5.372,6.158C5.417,6.158 5.448,6.126 5.467,6.063C5.486,6 5.495,5.885 5.495,5.718C5.495,5.554 5.486,5.439 5.467,5.374C5.448,5.31 5.416,5.277 5.372,5.277C5.327,5.277 5.295,5.308 5.277,5.371C5.259,5.434 5.25,5.549 5.25,5.718ZM5.753,5.748C5.753,5.953 5.721,6.106 5.658,6.208C5.594,6.309 5.499,6.36 5.372,6.36C5.242,6.36 5.146,6.308 5.085,6.204C5.023,6.101 4.992,5.941 4.992,5.725C4.992,5.507 5.023,5.348 5.085,5.245C5.146,5.141 5.242,5.09 5.372,5.09C5.504,5.09 5.6,5.142 5.661,5.247C5.722,5.352 5.753,5.518 5.753,5.748ZM5.909,6.335L5.909,5.114L6.159,5.114L6.159,6.139L6.45,6.139L6.45,6.335L5.909,6.335ZM6.426,6.249L6.563,6.081C6.579,6.109 6.595,6.129 6.609,6.14C6.623,6.151 6.639,6.156 6.656,6.156C6.684,6.156 6.705,6.141 6.718,6.11C6.731,6.078 6.738,6.031 6.738,5.966L6.738,5.114L6.989,5.114L6.989,6.007C6.989,6.12 6.964,6.206 6.911,6.268C6.86,6.329 6.786,6.36 6.69,6.36C6.633,6.36 6.582,6.35 6.539,6.332C6.495,6.314 6.458,6.286 6.426,6.249ZM7.417,5.952L7.6,5.952L7.54,5.567C7.536,5.535 7.531,5.496 7.527,5.449C7.523,5.401 7.52,5.349 7.517,5.29L7.502,5.29C7.496,5.36 7.491,5.42 7.486,5.472C7.481,5.524 7.477,5.557 7.474,5.571L7.417,5.952ZM7.088,6.335L7.38,5.114L7.65,5.114L7.934,6.335L7.672,6.335L7.636,6.137L7.38,6.137L7.337,6.335L7.088,6.335Z" style="fill:rgb(227,30,36);fill-rule:nonzero;"/>
            </g>
            <path d="M7.499,10.021L2.101,10.021C2.086,10.021 2.074,10.087 2.074,10.168C2.074,10.25 2.086,10.316 2.101,10.316L7.499,10.316C7.514,10.316 7.526,10.25 7.526,10.168C7.526,10.087 7.514,10.021 7.499,10.021Z" style="fill:rgb(227,30,36);"/>
            <path d="M4.541,4.368C4.515,4.412 4.489,4.445 4.463,4.465C4.437,4.486 4.409,4.497 4.38,4.497C4.342,4.497 4.312,4.484 4.287,4.46C4.262,4.435 4.25,4.404 4.25,4.366C4.25,4.347 4.253,4.327 4.259,4.308C4.264,4.289 4.274,4.269 4.285,4.25L5.052,2.896C5.081,2.849 5.107,2.817 5.131,2.799C5.156,2.78 5.184,2.771 5.215,2.771C5.253,2.771 5.284,2.782 5.31,2.806C5.335,2.83 5.348,2.86 5.348,2.896C5.348,2.912 5.344,2.93 5.338,2.95C5.332,2.97 5.321,2.991 5.308,3.014L4.541,4.368ZM5.115,4.109C5.115,4.144 5.126,4.175 5.15,4.201C5.174,4.227 5.202,4.24 5.234,4.24C5.266,4.24 5.295,4.227 5.318,4.201C5.34,4.175 5.352,4.144 5.352,4.109C5.352,4.071 5.34,4.039 5.318,4.014C5.295,3.988 5.266,3.975 5.234,3.975C5.201,3.975 5.173,3.988 5.149,4.014C5.126,4.039 5.115,4.071 5.115,4.109ZM4.878,4.108C4.878,4.005 4.912,3.917 4.982,3.845C5.051,3.773 5.135,3.738 5.234,3.738C5.333,3.738 5.416,3.774 5.486,3.846C5.555,3.918 5.589,4.005 5.589,4.108C5.589,4.211 5.555,4.298 5.486,4.37C5.416,4.442 5.333,4.478 5.234,4.478C5.134,4.478 5.05,4.442 4.981,4.371C4.912,4.3 4.878,4.212 4.878,4.108ZM4.247,3.151C4.247,3.188 4.259,3.219 4.282,3.245C4.306,3.271 4.333,3.285 4.366,3.285C4.398,3.285 4.426,3.271 4.449,3.245C4.473,3.218 4.485,3.187 4.485,3.151C4.485,3.115 4.473,3.083 4.45,3.058C4.427,3.032 4.399,3.019 4.366,3.019C4.332,3.019 4.304,3.032 4.281,3.058C4.259,3.083 4.247,3.115 4.247,3.151ZM4.01,3.152C4.01,3.048 4.045,2.961 4.114,2.889C4.183,2.818 4.268,2.782 4.367,2.782C4.465,2.782 4.549,2.818 4.618,2.89C4.687,2.963 4.722,3.05 4.722,3.152C4.722,3.254 4.687,3.342 4.618,3.414C4.549,3.485 4.465,3.522 4.367,3.522C4.267,3.522 4.182,3.486 4.113,3.414C4.045,3.343 4.01,3.255 4.01,3.152Z" style="fill:rgb(227,30,36);fill-rule:nonzero;"/>
        </g>
    </g>
</svg>
