<?xml version="1.0" encoding="UTF-8"?>
<svg width="40px" height="48px" viewBox="0 0 40 48" version="1.1" xmlns="http://www.w3.org/2000/svg" xmlns:xlink="http://www.w3.org/1999/xlink">
    <title>MARKICE/Novo</title>
    <g id="DESKTOP" stroke="none" stroke-width="1" fill="none" fill-rule="evenodd">
        <g id="5.1-Detalj-artikla" transform="translate(-990.000000, -372.000000)">
            <g id="vobleri" transform="translate(990.000000, 316.000000)">
                <g id="Group" transform="translate(0.000000, 56.722689)">
                    <g id="MARKICE/Novo" transform="translate(-0.273311, 0.000000)">
                        <polygon id="Fill-5" fill="#FEFEFE" points="40.2168067 18.9404034 40.2168067 14.7016807 20.276605 3.18937815 20.276605 3.18890756 0.336134454 14.7016807 0.336134454 18.9398992 20.276605 7.42736134 20.276605 7.42783193"></polygon>
                        <path d="M2.96238655,-2.66453526e-15 L37.2481008,-2.66453526e-15 C38.9605881,-2.66453526e-15 40.2733109,1.31676325 40.2733109,3.02521008 L40.2733109,14.789916 L20.4413782,3.36134454 L20.4413782,3.36134454 L0.273310924,14.789916 L0.273310924,2.68907563 C0.273310924,1.27036882 1.53977812,-2.66453526e-15 2.96238655,-2.66453526e-15 Z M40.2733109,18.8235294 L40.2733109,44.0336134 C40.2733109,45.4628989 39.0123728,46.7226891 37.5842353,46.7226891 L2.96238655,46.7226891 C1.53424902,46.7226891 0.273310924,45.4628989 0.273310924,44.0336134 L0.273310924,18.8235294 L20.4413782,7.39495798 L20.4413782,7.39495798 L40.2733109,18.8235294 Z" id="Fill-13" fill="#A5CD38"></path>
                        <path d="M4.26766387,34.1187563 L4.26766387,20.9428571 L6.95455462,20.9428571 L8.79539496,27.2232605 C8.88934454,27.5307563 9.03492437,28.0797647 9.22894118,28.8702185 C9.42608403,29.6578151 9.65657143,30.637916 9.92336134,31.8106218 L10.1022857,31.8106218 C9.88094118,30.2125714 9.71115966,28.7983866 9.58682353,27.5682017 C9.46245378,26.3407731 9.39882353,25.4238655 9.39882353,24.8231933 L9.39882353,20.9428571 L11.8370084,20.9428571 L11.8370084,34.1187563 L9.19559664,34.1187563 L7.40941176,28.2493782 C7.38510924,28.1659832 7.34272269,28.0251765 7.28517647,27.8297479 C6.78171429,26.1970756 6.42383193,24.7714622 6.20847059,23.5527059 L6.05089076,23.5527059 C6.26309244,25.1365042 6.42383193,26.5506891 6.53596639,27.7952605 C6.64830252,29.0426891 6.70584874,30.0803025 6.70584874,30.9109916 L6.70584874,34.1187563 L4.26766387,34.1187563 Z M16.1014454,27.4560336 C16.1014454,29.2582185 16.201479,30.4999328 16.3986218,31.1812101 C16.5987227,31.8623866 16.9354622,32.204437 17.4175798,32.204437 C17.9027563,32.204437 18.2423529,31.8623866 18.442521,31.1812101 C18.6396639,30.4999328 18.7397983,29.2582185 18.7397983,27.4560336 C18.7397983,25.6854118 18.6396639,24.4495126 18.4365378,23.7509916 C18.2363361,23.0525714 17.8966723,22.7019496 17.4175798,22.7019496 C16.9292437,22.7019496 16.5896807,23.041042 16.3955966,23.7165042 C16.1984538,24.3920672 16.1014454,25.6394958 16.1014454,27.4560336 Z M21.5236639,27.7837311 C21.5236639,29.994084 21.1809412,31.6468571 20.4986218,32.7390588 C19.8132437,33.8312941 18.7851765,34.3774454 17.4114958,34.3774454 C16.0135126,34.3774454 14.9823529,33.8198655 14.3152941,32.7045714 C13.6510588,31.5922353 13.3175798,29.8676303 13.3175798,27.5307563 C13.3175798,25.1882353 13.6510588,23.4636303 14.3152941,22.3511933 C14.9823529,21.2388908 16.0135126,20.6841345 17.4114958,20.6841345 C18.8397647,20.6841345 19.8799664,21.2474622 20.5379832,22.3771092 C21.1961681,23.5038319 21.5236639,25.306084 21.5236639,27.7837311 Z M27.1255798,34.1187563 L24.2841008,34.1187563 L21.8156303,20.9428571 L24.6146218,20.9428571 L25.1453445,25.4814118 C25.2696807,26.5132437 25.3757311,27.5135126 25.4607395,28.4821513 C25.5486723,29.4508908 25.6184202,30.408 25.6699832,31.3565042 L25.8306218,31.3565042 C25.9247395,30.017042 26.0186891,28.8615462 26.1096807,27.8958655 C26.2007059,26.9329412 26.2916975,26.1540168 26.3796303,25.5647059 L27.0740504,20.9428571 L29.676,20.9428571 L27.1255798,34.1187563 Z M32.6032605,27.4560336 C32.6032605,29.2582185 32.7032269,30.4999328 32.9003697,31.1812101 C33.1005378,31.8623866 33.4371765,32.204437 33.9193277,32.204437 C34.4045714,32.204437 34.7441681,31.8623866 34.9442689,31.1812101 C35.1414118,30.4999328 35.2415462,29.2582185 35.2415462,27.4560336 C35.2415462,25.6854118 35.1414118,24.4495126 34.9382521,23.7509916 C34.738084,23.0525714 34.3983866,22.7019496 33.9193277,22.7019496 C33.4310924,22.7019496 33.0914958,23.041042 32.8974118,23.7165042 C32.7002689,24.3920672 32.6032605,25.6394958 32.6032605,27.4560336 Z M38.0254118,27.7837311 C38.0254118,29.994084 37.6827563,31.6468571 37.0003697,32.7390588 C36.3150924,33.8312941 35.2869916,34.3774454 33.9133109,34.3774454 C32.5152269,34.3774454 31.4842017,33.8198655 30.8171092,32.7045714 C30.1529076,31.5922353 29.8193277,29.8676303 29.8193277,27.5307563 C29.8193277,25.1882353 30.1529076,23.4636303 30.8171092,22.3511933 C31.4842017,21.2388908 32.5152269,20.6841345 33.9133109,20.6841345 C35.3415798,20.6841345 36.3816807,21.2474622 37.0397983,22.3771092 C37.697916,23.5038319 38.0254118,25.306084 38.0254118,27.7837311 L38.0254118,27.7837311 Z" id="Fill-20" fill="#FEFEFE"></path>
                        <path d="M31.489916,40.7651765 L9.06332773,40.7651765 C9.00131092,40.7651765 8.95068908,41.040605 8.95068908,41.377916 L8.95068908,41.377916 C8.95068908,41.7151261 9.00147899,41.9906891 9.06332773,41.9906891 L31.489916,41.9906891 C31.5517311,41.9906891 31.602521,41.7151261 31.602521,41.377916 L31.602521,41.377916 C31.602521,41.040605 31.5519328,40.7651765 31.489916,40.7651765" id="Fill-50" fill="#FEFEFE"></path>
                    </g>
                </g>
            </g>
        </g>
    </g>
</svg>