<?xml version="1.0" encoding="UTF-8"?>
<svg width="40px" height="47px" viewBox="0 0 40 47" version="1.1" xmlns="http://www.w3.org/2000/svg" xmlns:xlink="http://www.w3.org/1999/xlink">
    <title>MARKICE/Ogranicena kolicina</title>
    <g id="DESKTOP" stroke="none" stroke-width="1" fill="none" fill-rule="evenodd">
        <g id="5.1-Detalj-artikla" transform="translate(-990.000000, -486.000000)">
            <g id="vobleri" transform="translate(990.000000, 316.000000)">
                <g id="Group" transform="translate(0.000000, 170.168067)">
                    <g id="MARKICE/Ogranicena-kolicina" transform="translate(0.031429, 0.000000)">
                        <polygon id="Fill-3" fill="#FEFEFE" points="39.8807395 18.9404034 39.8807395 14.7016807 19.9404706 3.18937815 19.9404706 3.18890756 9.55351577e-15 14.7016807 9.55351577e-15 18.9398992 19.9404706 7.42736134 19.9404706 7.42783193"></polygon>
                        <path d="M2.65764706,2.11222263e-15 L36.9433613,2.11222263e-15 C38.6557834,2.11222263e-15 39.9685714,1.31676325 39.9685714,3.02521008 L39.9685714,14.789916 L20.1366387,3.36134454 L20.1366387,3.36134454 L-0.0314285714,14.789916 L-0.0314285714,2.68907563 C-0.0314285714,1.27036882 1.23503649,2.11222263e-15 2.65764706,2.11222263e-15 Z M39.9685714,18.8235294 L39.9685714,44.0336134 C39.9685714,45.4628989 38.707568,46.7226891 37.2794958,46.7226891 L2.65764706,46.7226891 C1.22947368,46.7226891 -0.0314285714,45.4628989 -0.0314285714,44.0336134 L-0.0314285714,18.8235294 L20.1366387,7.39495798 L20.1366387,7.39495798 L39.9685714,18.8235294 Z" id="Fill-12" fill="#929497"></path>
                        <path d="M4.5387563,37.8231261 L4.5387563,30.9562353 L5.94218487,30.9562353 L5.94218487,33.9313277 L6.01173109,33.9313277 L7.31556303,30.9562353 L8.75384874,30.9562353 L7.28870588,34.0062185 L8.78702521,37.8231261 L7.28870588,37.8231261 L6.01173109,34.1379832 L5.94218487,34.1379832 L5.94218487,37.8231261 L4.5387563,37.8231261 Z M10.4232941,34.3507563 C10.4232941,35.2899496 10.4753277,35.9371092 10.5780504,36.2921345 C10.6824538,36.6471597 10.8578824,36.8254454 11.1091429,36.8254454 C11.3620168,36.8254454 11.5390588,36.6471597 11.643395,36.2921345 C11.746084,35.9371092 11.7983193,35.2899496 11.7983193,34.3507563 C11.7983193,33.4279664 11.746084,32.7838319 11.6401345,32.4197647 C11.5358992,32.0557983 11.3588571,31.873042 11.1091429,31.873042 C10.8547227,31.873042 10.6777143,32.0497815 10.576605,32.4018487 C10.4737815,32.7538487 10.4232941,33.4040336 10.4232941,34.3507563 Z M13.2490756,34.5215126 C13.2490756,35.673479 13.070521,36.5348235 12.7148235,37.1041345 C12.3577143,37.6733445 11.8219496,37.9579496 11.1059832,37.9579496 C10.377479,37.9579496 9.83996639,37.6673613 9.49230252,37.0861176 C9.14611765,36.5064202 8.97233613,35.6075294 8.97233613,34.3897479 C8.97233613,33.1687731 9.14611765,32.2699832 9.49230252,31.6902857 C9.83996639,31.1104874 10.377479,30.8214118 11.1059832,30.8214118 C11.8503529,30.8214118 12.3925042,31.1150588 12.7354958,31.7037311 C13.0784202,32.290958 13.2490756,33.2302521 13.2490756,34.5215126 Z M14.0222857,37.8231261 L14.0222857,30.9562353 L15.4258151,30.9562353 L15.4258151,36.7175798 L17.0662857,36.7175798 L17.0662857,37.8231261 L14.0222857,37.8231261 Z M18.9663866,37.8231261 L17.5629916,37.8231261 L17.5629916,30.9562353 L18.9663866,30.9562353 L18.9663866,37.8231261 Z M23.9848067,35.9790252 C23.8804706,36.6217143 23.6465546,37.1130756 23.2830588,37.4516303 C22.9211765,37.7886387 22.446958,37.9579496 21.860605,37.9579496 C21.1383529,37.9579496 20.6025882,37.6688739 20.2517647,37.0890756 C19.9024538,36.5093782 19.7270252,35.6210756 19.7270252,34.4241345 C19.7270252,33.1837311 19.9103529,32.2715294 20.2770084,31.6887731 C20.6452773,31.104605 21.2158319,30.8124706 21.9902857,30.8124706 C22.535563,30.8124706 22.9733109,30.9577479 23.3020168,31.2468571 C23.6307563,31.5359328 23.8551261,31.9778487 23.9752941,32.572605 L22.6762017,32.9845042 C22.6430588,32.6160672 22.5687395,32.3479328 22.454958,32.1801345 C22.3394958,32.0108235 22.1767395,31.926958 21.9632941,31.926958 C21.6773782,31.926958 21.4749916,32.1052437 21.356437,32.4617815 C21.237916,32.8197647 21.1778824,33.4729412 21.1778824,34.4241345 C21.1778824,35.3438992 21.2348571,35.9745546 21.3486387,36.3190924 C21.4623193,36.6622185 21.6583193,36.8344874 21.9365378,36.8344874 C22.1435966,36.8344874 22.309479,36.7280672 22.4342857,36.5169076 C22.5591933,36.3041345 22.646084,35.985042 22.6951597,35.5566387 L23.9848067,35.9790252 Z M20.589916,29.0957647 L21.1652101,29.0957647 L21.8701176,29.7443361 L22.5750252,29.0957647 L23.1502521,29.0957647 L22.3427227,30.3360336 L21.3976134,30.3360336 L20.589916,29.0957647 Z M25.9812773,37.8231261 L24.5778487,37.8231261 L24.5778487,30.9562353 L25.9812773,30.9562353 L25.9812773,37.8231261 Z M26.9504874,37.8231261 L26.9504874,30.9562353 L28.3508235,30.9562353 L29.3101513,34.2293782 C29.3591261,34.3897479 29.4350588,34.6757647 29.5361345,35.0877647 C29.6388571,35.4982521 29.7590252,36.009042 29.8980168,36.6202017 L29.9912941,36.6202017 C29.8759328,35.7873277 29.7874958,35.0503193 29.7226218,34.4091765 C29.657916,33.7695462 29.6246723,33.2915966 29.6246723,32.9785882 L29.6246723,30.9562353 L30.8953613,30.9562353 L30.8953613,37.8231261 L29.5187227,37.8231261 L28.5878992,34.7642017 C28.5752269,34.7207395 28.5531092,34.6473613 28.5230252,34.5455126 C28.2608067,33.6946555 28.0741513,32.9516303 27.9619832,32.3164706 L27.8798655,32.3164706 C27.9904874,33.1418151 28.0741513,33.8788235 28.1326387,34.5274958 C28.1911261,35.1776134 28.2212437,35.7184538 28.2212437,36.1512941 L28.2212437,37.8231261 L26.9504874,37.8231261 Z M33.1968739,35.6660504 L34.2209748,35.6660504 L33.8875966,33.5014118 C33.8623529,33.326084 33.8386218,33.105916 33.8148908,32.8391933 C33.7911597,32.572605 33.7721008,32.276 33.7580168,31.9479328 L33.6693782,31.9479328 C33.6378487,32.3374454 33.6093782,32.6789244 33.5809748,32.9710924 C33.554084,33.2632269 33.532,33.4489076 33.5160672,33.5283697 L33.1968739,35.6660504 Z M31.344605,37.8231261 L32.9882353,30.9562353 L34.5023529,30.9562353 L36.1050084,37.8231261 L34.6272605,37.8231261 L34.4280336,36.708605 L32.9882353,36.708605 L32.7481008,37.8231261 L31.344605,37.8231261 Z" id="Fill-18" fill="#FEFEFE"></path>
                        <path d="M5.49398319,26.2037647 C5.49398319,26.8667227 5.5307563,27.3234958 5.6032605,27.5740168 C5.67690756,27.824605 5.80067227,27.9504538 5.97808403,27.9504538 C6.15657143,27.9504538 6.28147899,27.824605 6.35502521,27.5740168 C6.42763025,27.3234958 6.46440336,26.8667227 6.46440336,26.2037647 C6.46440336,25.5525042 6.42763025,25.0978151 6.35284034,24.8409412 C6.27929412,24.5839664 6.15428571,24.4550252 5.97808403,24.4550252 C5.79838655,24.4550252 5.67347899,24.5797647 5.60211765,24.8282689 C5.52961345,25.0766723 5.49398319,25.5355294 5.49398319,26.2037647 Z M7.48840336,26.3242689 C7.48840336,27.1374118 7.36245378,27.7453109 7.11139496,28.1471261 C6.8592605,28.5488403 6.48107563,28.7497815 5.97589916,28.7497815 C5.46157983,28.7497815 5.0822521,28.5446387 4.83690756,28.1344538 C4.59260504,27.7252101 4.46988235,27.0908235 4.46988235,26.2312941 C4.46988235,25.3695462 4.59260504,24.7351597 4.83690756,24.3260168 C5.0822521,23.9168739 5.46157983,23.7127731 5.97589916,23.7127731 C6.50121008,23.7127731 6.88383193,23.9200336 7.12584874,24.335563 C7.36796639,24.7500168 7.48840336,25.4129076 7.48840336,26.3242689 Z M9.35280672,26.5103866 L9.35280672,25.7427899 L10.938958,25.7427899 L10.938958,26.7704874 C10.938958,27.4112605 10.8063193,27.9007395 10.5407731,28.2401345 C10.2741849,28.5795294 9.89267227,28.7497815 9.3930084,28.7497815 C8.88305882,28.7497815 8.50497479,28.5456807 8.25734454,28.1365378 C8.01085714,27.7273277 7.8869916,27.1003697 7.8869916,26.2555966 C7.8869916,25.3801345 8.01647059,24.7362017 8.27630252,24.3249748 C8.53509244,23.912605 8.9377479,23.7064202 9.48447059,23.7064202 C9.84026891,23.7064202 10.1258151,23.7878655 10.3411765,23.9517647 C10.5564034,24.1145882 10.7203025,24.3714622 10.8308235,24.7204034 L9.9485042,25.0133109 C9.90715966,24.832437 9.84806723,24.7003025 9.77109244,24.6178824 C9.69304202,24.5343193 9.5914958,24.493042 9.46541176,24.493042 C9.26352941,24.493042 9.12077311,24.6189244 9.03714286,24.8705546 C8.95347899,25.1232605 8.91105882,25.5842353 8.91105882,26.2555966 C8.91105882,26.9047395 8.95119328,27.349916 9.0314958,27.5930756 C9.11183193,27.8351597 9.25008403,27.9567395 9.44645378,27.9567395 C9.60712605,27.9567395 9.7309916,27.8690084 9.81788235,27.694521 C9.90497479,27.5200672 9.9485042,27.2716639 9.9485042,26.9470588 L9.9485042,26.5103866 L9.35280672,26.5103866 Z M11.5104538,28.6545882 L11.5104538,23.8079664 L12.7419832,23.8079664 C13.2796639,23.8079664 13.6868235,23.9221176 13.9623529,24.151563 C14.2378151,24.3810084 14.3751261,24.7193613 14.3751261,25.1666218 C14.3751261,25.4763697 14.3037647,25.7365042 14.1597983,25.9479328 C14.0158992,26.1593613 13.8106891,26.3074286 13.5451092,26.3898487 L14.4687731,28.6545882 L13.4369748,28.6545882 L12.5757311,26.3708908 L12.4809076,26.3708908 L12.4809076,28.6545882 L11.5104538,28.6545882 Z M12.4809076,25.8823529 C12.4943529,25.8823529 12.5133109,25.8834286 12.5378824,25.8855126 C12.5635294,25.8875966 12.5824874,25.8887395 12.5947899,25.8887395 C12.8479328,25.8887395 13.0431597,25.828437 13.1826555,25.7068571 C13.322084,25.5863193 13.3912269,25.4160672 13.3912269,25.1971765 C13.3912269,24.9783193 13.3232269,24.8123361 13.185916,24.7003025 C13.0487059,24.5871933 12.8479328,24.5311597 12.5824874,24.5311597 L12.4809076,24.5311597 L12.4809076,25.8823529 Z M15.8667563,27.1321008 L16.5895798,27.1321008 L16.3542185,25.6043361 C16.3363361,25.4805714 16.3196303,25.3251429 16.3028908,25.1369748 C16.2861849,24.9488067 16.2728739,24.7394622 16.2627563,24.5079328 L16.2003361,24.5079328 C16.1780504,24.7828235 16.1579496,25.0238655 16.1378487,25.2299832 C16.1188908,25.4361681 16.1032605,25.5672605 16.0921008,25.6232941 L15.8667563,27.1321008 Z M14.5594958,28.6545882 L15.719563,23.8079664 L16.7881345,23.8079664 L17.9192269,28.6545882 L16.8762689,28.6545882 L16.7357311,27.8679664 L15.719563,27.8679664 L15.5499496,28.6545882 L14.5594958,28.6545882 Z M18.3022857,28.6545882 L18.3022857,23.8079664 L19.2906555,23.8079664 L19.9677311,26.118084 C20.0023193,26.2312941 20.0558655,26.4331765 20.1272269,26.724 C20.1997311,27.0136471 20.2845378,27.3741849 20.3826555,27.8056471 L20.4485042,27.8056471 C20.3671261,27.2177479 20.3045378,26.6975126 20.2587899,26.2450084 C20.2130756,25.7935462 20.1896134,25.4562689 20.1896134,25.2352941 L20.1896134,23.8079664 L21.086521,23.8079664 L21.086521,28.6545882 L20.1149244,28.6545882 L19.4579496,26.4955966 C19.4490084,26.4649076 19.4333782,26.4130756 19.4122353,26.3412437 C19.2269916,25.7406723 19.095395,25.2162353 19.0162353,24.7679328 L18.9581849,24.7679328 C19.0363361,25.3504874 19.095395,25.8707563 19.1366723,26.3285714 C19.177916,26.7874622 19.1991597,27.169042 19.1991597,27.4746218 L19.1991597,28.6545882 L18.3022857,28.6545882 Z M22.7691092,28.6545882 L21.7784538,28.6545882 L21.7784538,23.8079664 L22.7691092,23.8079664 L22.7691092,28.6545882 Z M26.3110252,27.353042 C26.237479,27.8066891 26.0723361,28.1534118 25.8157647,28.3923697 C25.5603025,28.6303193 25.2256807,28.7497815 24.8118655,28.7497815 C24.3020168,28.7497815 23.9239328,28.5456807 23.6762017,28.1365378 C23.4297143,27.7273277 23.305916,27.1003697 23.305916,26.2555966 C23.305916,25.3801345 23.4354286,24.7362017 23.6941176,24.3249748 C23.9540504,23.912605 24.3567059,23.7064202 24.9033277,23.7064202 C25.2881681,23.7064202 25.5971765,23.8090084 25.8291765,24.0130084 C26.0612101,24.2171092 26.219563,24.5289748 26.3043697,24.9488067 L25.3873613,25.2394958 C25.3640336,24.9794622 25.3116303,24.7901513 25.2312941,24.6716975 C25.1498151,24.5523361 25.0349244,24.493042 24.8843697,24.493042 C24.6823866,24.493042 24.5396303,24.6189244 24.456,24.8705546 C24.372437,25.1232605 24.329916,25.5842353 24.329916,26.2555966 C24.329916,26.9047395 24.3700504,27.349916 24.4503529,27.5930756 C24.5306891,27.8351597 24.669042,27.9567395 24.8654118,27.9567395 C25.011563,27.9567395 25.1286723,27.8816807 25.2168067,27.7326387 C25.3048403,27.5824874 25.3663193,27.3573445 25.4009076,27.0549244 L26.3110252,27.353042 Z M23.914958,22.4947899 L24.3209748,22.4947899 L24.818521,22.9526387 L25.316,22.4947899 L25.722084,22.4947899 L25.1521008,23.3702521 L24.4849412,23.3702521 L23.914958,22.4947899 Z M26.7297143,28.6545882 L26.7297143,23.8079664 L28.8782185,23.8079664 L28.8782185,24.5691765 L27.7203361,24.5691765 L27.7203361,25.7301176 L28.8782185,25.7301176 L28.8782185,26.4786555 L27.7203361,26.4786555 L27.7203361,27.8743193 L28.8782185,27.8743193 L28.8782185,28.6545882 L26.7297143,28.6545882 Z M29.5099496,28.6545882 L29.5099496,23.8079664 L30.4983193,23.8079664 L31.175395,26.118084 C31.2098824,26.2312941 31.2635294,26.4331765 31.3348908,26.724 C31.407395,27.0136471 31.4922017,27.3741849 31.5903193,27.8056471 L31.6561681,27.8056471 C31.5747227,27.2177479 31.5122017,26.6975126 31.4664538,26.2450084 C31.4207395,25.7935462 31.3972773,25.4562689 31.3972773,25.2352941 L31.3972773,23.8079664 L32.2941849,23.8079664 L32.2941849,28.6545882 L31.3225882,28.6545882 L30.6655126,26.4955966 C30.6566723,26.4649076 30.641042,26.4130756 30.6197983,26.3412437 C30.4346555,25.7406723 30.3030588,25.2162353 30.2238992,24.7679328 L30.1658487,24.7679328 C30.244,25.3504874 30.3030588,25.8707563 30.3442353,26.3285714 C30.3855798,26.7874622 30.4068235,27.169042 30.4068235,27.4746218 L30.4068235,28.6545882 L29.5099496,28.6545882 Z M33.9187563,27.1321008 L34.6414454,27.1321008 L34.4062185,25.6043361 C34.3883025,25.4805714 34.3716303,25.3251429 34.3547563,25.1369748 C34.338084,24.9488067 34.3247395,24.7394622 34.3146555,24.5079328 L34.2522353,24.5079328 C34.2299496,24.7828235 34.2098487,25.0238655 34.1897143,25.2299832 C34.1708571,25.4361681 34.1551261,25.5672605 34.144,25.6232941 L33.9187563,27.1321008 Z M32.611395,28.6545882 L33.7714286,23.8079664 L34.8400336,23.8079664 L35.9711261,28.6545882 L34.9281681,28.6545882 L34.7876303,27.8679664 L33.7714286,27.8679664 L33.6018487,28.6545882 L32.611395,28.6545882 Z" id="Fill-36" fill="#FEFEFE"></path>
                        <path d="M31.1537479,40.7651765 L8.72719328,40.7651765 C8.66514286,40.7651765 8.61455462,41.040605 8.61455462,41.377916 L8.61455462,41.377916 C8.61455462,41.7151261 8.66534454,41.9906891 8.72719328,41.9906891 L31.1537479,41.9906891 C31.2155966,41.9906891 31.2663866,41.7151261 31.2663866,41.377916 L31.2663866,41.377916 C31.2663866,41.040605 31.2157647,40.7651765 31.1537479,40.7651765" id="Fill-48" fill="#FEFEFE"></path>
                        <path d="M15.6682017,13.0759664 L16.0849748,13.0759664 C16.5374454,13.0759664 16.9055462,13.4441345 16.9055462,13.8965378 L16.9055462,19.1887059 C16.9055462,19.6412773 16.5374454,20.0094454 16.0849748,20.0094454 L15.6682017,20.0094454 C15.2156975,20.0094454 14.8476303,19.6412773 14.8476303,19.1887059 L14.8476303,13.8965378 C14.8476303,13.4441345 15.2156975,13.0759664 15.6682017,13.0759664" id="Fill-52" fill="#FEFEFE"></path>
                        <path d="M18.3775462,14.7431933 L18.7942185,14.7431933 C19.2468235,14.7431933 19.6149916,15.1112941 19.6149916,15.5638655 L19.6149916,19.1887059 C19.6149916,19.6412773 19.2468235,20.0094454 18.7942185,20.0094454 L18.3775462,20.0094454 C17.9249748,20.0094454 17.5567731,19.6412773 17.5567731,19.1887059 L17.5567731,16.0438992 C17.5567731,15.5913277 17.9249748,14.7431933 18.3775462,14.7431933" id="Fill-54" fill="#FEFEFE"></path>
                        <path d="M21.0867227,16.4105546 L21.503563,16.4105546 C21.9560672,16.4105546 22.3241345,16.7786218 22.3241345,17.2311261 L22.3241345,19.1887059 C22.3241345,19.6412773 21.9560672,20.0094454 21.503563,20.0094454 L21.0867227,20.0094454 C20.6343193,20.0094454 20.2662185,19.6412773 20.2662185,19.1887059 L20.2662185,17.2311261 C20.2662185,16.7786218 20.6343193,16.4105546 21.0867227,16.4105546" id="Fill-56" fill="#FEFEFE"></path>
                        <path d="M23.7959664,17.5977815 L24.2128403,17.5977815 C24.6652101,17.5977815 25.0333782,17.9658487 25.0333782,18.4183529 L25.0333782,19.1887059 C25.0333782,19.6412773 24.6652101,20.0094454 24.2128403,20.0094454 L23.7959664,20.0094454 C23.3434622,20.0094454 22.975395,19.6412773 22.975395,19.1887059 L22.975395,18.4183529 C22.975395,17.9658487 23.3434622,17.5977815 23.7959664,17.5977815" id="Fill-58" fill="#FEFEFE"></path>
                    </g>
                </g>
            </g>
        </g>
    </g>
</svg>