<?xml version="1.0" encoding="UTF-8"?>
<svg width="20px" height="20px" viewBox="0 0 20 20" version="1.1" xmlns="http://www.w3.org/2000/svg" xmlns:xlink="http://www.w3.org/1999/xlink">
    <title>ICONS/furnitue/Police</title>
    <g id="ICONS/furnitue/Police" stroke="none" stroke-width="1" fill="none" fill-rule="evenodd">
        <g id="streamline-icon-shelf-books-1@20x20" transform="translate(0.000000, 1.000000)" fill="#707070" fill-rule="nonzero">
            <path d="M5.83333333,10.5833333 L5,10.5833333 C4.49373898,10.5833333 4.08333333,10.993739 4.08333333,11.5 L4.08333333,16.0833333 C4.08333333,16.3594757 4.30719096,16.5833333 4.58333333,16.5833333 L6.25,16.5833333 C6.52614237,16.5833333 6.75,16.3594757 6.75,16.0833333 L6.75,11.5 C6.75,10.993739 6.33959435,10.5833333 5.83333333,10.5833333 Z M5.75,11.583 L5.75,15.583 L5.083,15.583 L5.083,11.583 L5.75,11.583 Z" id="Path"></path>
            <path d="M7.5,10.5833333 L6.66666667,10.5833333 C6.16040565,10.5833333 5.75,10.993739 5.75,11.5 L5.75,16.0833333 C5.75,16.3594757 5.97385763,16.5833333 6.25,16.5833333 L7.91666667,16.5833333 C8.19280904,16.5833333 8.41666667,16.3594757 8.41666667,16.0833333 L8.41666667,11.5 C8.41666667,10.993739 8.00626102,10.5833333 7.5,10.5833333 Z M7.416,11.583 L7.416,15.583 L6.75,15.583 L6.75,11.583 L7.416,11.583 Z" id="Path"></path>
            <path d="M9.16666667,10.5833333 L8.33333333,10.5833333 C7.82707231,10.5833333 7.41666667,10.993739 7.41666667,11.5 L7.41666667,16.0833333 C7.41666667,16.3594757 7.64052429,16.5833333 7.91666667,16.5833333 L9.58333333,16.5833333 C9.85947571,16.5833333 10.0833333,16.3594757 10.0833333,16.0833333 L10.0833333,11.5 C10.0833333,10.993739 9.67292769,10.5833333 9.16666667,10.5833333 Z M9.083,11.583 L9.083,15.583 L8.416,15.583 L8.416,11.583 L9.083,11.583 Z" id="Path"></path>
            <path d="M11.9703561,10.5671854 L11.1370228,10.5671854 C10.6307618,10.5671854 10.2203561,10.977591 10.2203561,11.483852 L10.2203561,16.0671854 C10.2203561,16.3433277 10.4442138,16.5671854 10.7203561,16.5671854 L11.9703561,16.5671854 C12.4766172,16.5671854 12.8870228,16.1567797 12.8870228,15.6505187 L12.8870228,11.483852 C12.8870228,10.977591 12.4766172,10.5671854 11.9703561,10.5671854 Z M11.887,11.567 L11.887,15.567 L11.22,15.567 L11.22,11.567 L11.887,11.567 Z" id="Path" transform="translate(11.553689, 13.567185) rotate(-35.685000) translate(-11.553689, -13.567185) "></path>
            <path d="M15.4166667,2.25 L13.75,2.25 C13.4738576,2.25 13.25,2.47385763 13.25,2.75 L13.25,7.33333333 C13.25,7.83959435 13.6604056,8.25 14.1666667,8.25 L15,8.25 C15.506261,8.25 15.9166667,7.83959435 15.9166667,7.33333333 L15.9166667,2.75 C15.9166667,2.47385763 15.692809,2.25 15.4166667,2.25 Z M14.916,3.25 L14.916,7.25 L14.25,7.25 L14.25,3.25 L14.916,3.25 Z" id="Path" transform="translate(14.583333, 5.250000) rotate(180.000000) translate(-14.583333, -5.250000) "></path>
            <path d="M13.75,2.25 L12.0833333,2.25 C11.807191,2.25 11.5833333,2.47385763 11.5833333,2.75 L11.5833333,7.33333333 C11.5833333,7.83959435 11.993739,8.25 12.5,8.25 L13.3333333,8.25 C13.8395944,8.25 14.25,7.83959435 14.25,7.33333333 L14.25,2.75 C14.25,2.47385763 14.0261424,2.25 13.75,2.25 Z M13.249,3.25 L13.249,7.25 L12.583,7.25 L12.583,3.25 L13.249,3.25 Z" id="Path" transform="translate(12.916667, 5.250000) rotate(180.000000) translate(-12.916667, -5.250000) "></path>
            <path d="M10.5291654,2.23266413 L9.27916539,2.23266413 C9.00302302,2.23266413 8.77916539,2.45652175 8.77916539,2.73266413 L8.77916539,7.31599746 C8.77916539,7.82225848 9.18957104,8.23266413 9.69583206,8.23266413 L10.5291654,8.23266413 C11.0354264,8.23266413 11.4458321,7.82225848 11.4458321,7.31599746 L11.4458321,3.14933079 C11.4458321,2.64306977 11.0354264,2.23266413 10.5291654,2.23266413 Z M10.445,3.232 L10.445,7.232 L9.779,7.232 L9.779,3.232 L10.445,3.232 Z" id="Path" transform="translate(10.112499, 5.232664) rotate(-144.315000) translate(-10.112499, -5.232664) "></path>
            <path d="M2.08333333,-0.25 C2.32879322,-0.25 2.5329417,-0.0731248394 2.57527766,0.160124368 L2.58333333,0.25 L2.58333333,7.75 C2.58333333,8.02614237 2.35947571,8.25 2.08333333,8.25 C1.83787344,8.25 1.63372496,8.07312484 1.591389,7.83987563 L1.58333333,7.75 L1.58333333,0.25 C1.58333333,-0.0261423749 1.80719096,-0.25 2.08333333,-0.25 Z" id="Path"></path>
            <path d="M17.9166667,-0.25 C18.1621266,-0.25 18.366275,-0.0731248394 18.408611,0.160124368 L18.4166667,0.25 L18.4166667,7.75 C18.4166667,8.02614237 18.192809,8.25 17.9166667,8.25 C17.6712068,8.25 17.4670583,8.07312484 17.4247223,7.83987563 L17.4166667,7.75 L17.4166667,0.25 C17.4166667,-0.0261423749 17.6405243,-0.25 17.9166667,-0.25 Z" id="Path"></path>
            <path d="M2.08333333,8.91666667 C2.32879322,8.91666667 2.5329417,9.09354183 2.57527766,9.32679103 L2.58333333,9.41666667 L2.58333333,16.0833333 C2.58333333,16.3594757 2.35947571,16.5833333 2.08333333,16.5833333 C1.83787344,16.5833333 1.63372496,16.4064582 1.591389,16.173209 L1.58333333,16.0833333 L1.58333333,9.41666667 C1.58333333,9.14052429 1.80719096,8.91666667 2.08333333,8.91666667 Z" id="Path"></path>
            <path d="M17.9166667,8.91666667 C18.1621266,8.91666667 18.366275,9.09354183 18.408611,9.32679103 L18.4166667,9.41666667 L18.4166667,16.0833333 C18.4166667,16.3594757 18.192809,16.5833333 17.9166667,16.5833333 C17.6712068,16.5833333 17.4670583,16.4064582 17.4247223,16.173209 L17.4166667,16.0833333 L17.4166667,9.41666667 C17.4166667,9.14052429 17.6405243,8.91666667 17.9166667,8.91666667 Z" id="Path"></path>
            <path d="M18.75,7.25 L1.25,7.25 C0.513620334,7.25 -0.0833333333,7.84695367 -0.0833333333,8.58333333 C-0.0833333333,9.319713 0.513620334,9.91666667 1.25,9.91666667 L18.75,9.91666667 C19.4863797,9.91666667 20.0833333,9.319713 20.0833333,8.58333333 C20.0833333,7.84695367 19.4863797,7.25 18.75,7.25 Z M1.25,8.25 L18.75,8.25 C18.9340949,8.25 19.0833333,8.39923842 19.0833333,8.58333333 C19.0833333,8.76742825 18.9340949,8.91666667 18.75,8.91666667 L1.25,8.91666667 C1.06590508,8.91666667 0.916666667,8.76742825 0.916666667,8.58333333 C0.916666667,8.39923842 1.06590508,8.25 1.25,8.25 Z" id="Path"></path>
            <path d="M18.75,15.5833333 L1.25,15.5833333 C0.513620334,15.5833333 -0.0833333333,16.180287 -0.0833333333,16.9166667 C-0.0833333333,17.6530463 0.513620334,18.25 1.25,18.25 L18.75,18.25 C19.4863797,18.25 20.0833333,17.6530463 20.0833333,16.9166667 C20.0833333,16.180287 19.4863797,15.5833333 18.75,15.5833333 Z M1.25,16.5833333 L18.75,16.5833333 C18.9340949,16.5833333 19.0833333,16.7325718 19.0833333,16.9166667 C19.0833333,17.1007616 18.9340949,17.25 18.75,17.25 L1.25,17.25 C1.06590508,17.25 0.916666667,17.1007616 0.916666667,16.9166667 C0.916666667,16.7325718 1.06590508,16.5833333 1.25,16.5833333 Z" id="Path"></path>
        </g>
    </g>
</svg>