<?xml version="1.0" encoding="UTF-8"?>
<svg width="41px" height="47px" viewBox="0 0 41 47" version="1.1" xmlns="http://www.w3.org/2000/svg" xmlns:xlink="http://www.w3.org/1999/xlink">
    <title>MARKICE/Popust</title>
    <g id="DESKTOP" stroke="none" stroke-width="1" fill="none" fill-rule="evenodd">
        <g id="5.1-Detalj-artikla" transform="translate(-990.000000, -316.000000)">
            <g id="vobleri" transform="translate(990.000000, 316.000000)">
                <g id="Group" transform="translate(0.000000, -0.000000)">
                    <g id="MARKICE/Popust" transform="translate(0.000000, -0.000000)">
                        <g transform="translate(-0.189748, -0.297546)">
                            <polygon id="Fill-7" fill="#FEFEFE" points="40.2167731 19.2765378 40.2167731 15.0378151 20.276605 3.52551261 20.276605 3.52504202 0.336134454 15.0378151 0.336134454 19.2760336 20.276605 7.7634958 20.276605 7.76396639"></polygon>
                            <path d="M2.87882353,0.297546218 L37.1645378,0.297546218 C38.877024,0.297546218 40.1897479,1.61420803 40.1897479,3.3227563 L40.1897479,15.0874622 L20.3578151,3.65889076 L20.3578151,3.65889076 L0.189747899,15.0874622 L0.189747899,2.98662185 C0.189747899,1.56791504 1.45618244,0.297546218 2.87882353,0.297546218 Z M40.1897479,19.1210756 L40.1897479,44.3311597 C40.1897479,45.7604451 38.9288425,47.0202353 37.5006723,47.0202353 L2.87882353,47.0202353 C1.45065334,47.0202353 0.189747899,45.7604451 0.189747899,44.3311597 L0.189747899,19.1210756 L20.3578151,7.6925042 L20.3578151,7.6925042 L40.1897479,19.1210756 Z" id="Fill-14" fill="#EC1D24"></path>
                            <path d="M31.4897815,41.1013109 L9.06329412,41.1013109 C9.00127731,41.1013109 8.95058824,41.3767731 8.95058824,41.7140504 L8.95058824,41.7140504 C8.95058824,42.0512605 9.00137815,42.3267227 9.06329412,42.3267227 L31.4897815,42.3267227 C31.5517311,42.3267227 31.6024874,42.0512605 31.6024874,41.7140504 L31.6024874,41.7140504 C31.6024874,41.3767731 31.5517983,41.1013109 31.4897815,41.1013109" id="Fill-42" fill="#FEFEFE"></path>
                        </g>
                    </g>
                </g>
            </g>
        </g>
    </g>
</svg>