<?xml version="1.0" encoding="UTF-8"?>
<svg width="20px" height="20px" viewBox="0 0 20 20" version="1.1" xmlns="http://www.w3.org/2000/svg" xmlns:xlink="http://www.w3.org/1999/xlink">
    <title>ICONS/furnitue/Predsoblja</title>
    <g id="ICONS/furnitue/Predsoblja" stroke="none" stroke-width="1" fill="none" fill-rule="evenodd">
        <g id="streamline-icon-dresser-wardrobe-mirror@20x20" transform="translate(2.000000, 0.000000)" fill="#707070" fill-rule="nonzero">
            <path d="M15.9166667,-0.0833333333 L0.0833333333,-0.0833333333 C-0.192809042,-0.0833333333 -0.416666667,0.140524292 -0.416666667,0.416666667 L-0.416666667,19.5833333 C-0.416666667,19.8594757 -0.192809042,20.0833333 0.0833333333,20.0833333 L15.9166667,20.0833333 C16.192809,20.0833333 16.4166667,19.8594757 16.4166667,19.5833333 L16.4166667,0.416666667 C16.4166667,0.140524292 16.192809,-0.0833333333 15.9166667,-0.0833333333 Z M15.416,0.916 L15.416,19.083 L0.583,19.083 L0.583,0.916 L15.416,0.916 Z" id="Path"></path>
            <path d="M15.9166667,4.08333333 C16.192809,4.08333333 16.4166667,4.30719096 16.4166667,4.58333333 C16.4166667,4.82879322 16.2397915,5.0329417 16.0065423,5.07527766 L15.9166667,5.08333333 L8.41666667,5.08333333 C8.14052429,5.08333333 7.91666667,4.85947571 7.91666667,4.58333333 C7.91666667,4.33787344 8.09354183,4.13372496 8.32679103,4.091389 L8.41666667,4.08333333 L15.9166667,4.08333333 Z" id="Path"></path>
            <path d="M15.9166667,8.25 C16.192809,8.25 16.4166667,8.47385763 16.4166667,8.75 C16.4166667,8.99545989 16.2397915,9.19960837 16.0065423,9.24194433 L15.9166667,9.25 L8.41666667,9.25 C8.14052429,9.25 7.91666667,9.02614237 7.91666667,8.75 C7.91666667,8.50454011 8.09354183,8.30039163 8.32679103,8.25805567 L8.41666667,8.25 L15.9166667,8.25 Z" id="Path"></path>
            <path d="M15.9166667,12.4166667 C16.192809,12.4166667 16.4166667,12.6405243 16.4166667,12.9166667 C16.4166667,13.1621266 16.2397915,13.366275 16.0065423,13.408611 L15.9166667,13.4166667 L8.41666667,13.4166667 C8.14052429,13.4166667 7.91666667,13.192809 7.91666667,12.9166667 C7.91666667,12.6712068 8.09354183,12.4670583 8.32679103,12.4247223 L8.41666667,12.4166667 L15.9166667,12.4166667 Z" id="Path"></path>
            <path d="M8.41666667,-0.0833333333 C8.66212656,-0.0833333333 8.86627504,0.0935418272 8.908611,0.326791034 L8.91666667,0.416666667 L8.91666667,19.5833333 C8.91666667,19.8594757 8.69280904,20.0833333 8.41666667,20.0833333 C8.17120678,20.0833333 7.9670583,19.9064582 7.92472234,19.673209 L7.91666667,19.5833333 L7.91666667,0.416666667 C7.91666667,0.140524292 8.14052429,-0.0833333333 8.41666667,-0.0833333333 Z" id="Path"></path>
            <path d="M13.4166667,14.0833333 C13.692809,14.0833333 13.9166667,14.307191 13.9166667,14.5833333 C13.9166667,14.8287932 13.7397915,15.0329417 13.5065423,15.0752777 L13.4166667,15.0833333 L10.9166667,15.0833333 C10.6405243,15.0833333 10.4166667,14.8594757 10.4166667,14.5833333 C10.4166667,14.3378734 10.5935418,14.133725 10.826791,14.091389 L10.9166667,14.0833333 L13.4166667,14.0833333 Z" id="Path"></path>
            <path d="M6.75,1.58333333 L1.75,1.58333333 C1.47385763,1.58333333 1.25,1.80719096 1.25,2.08333333 L1.25,17.9166667 C1.25,18.192809 1.47385763,18.4166667 1.75,18.4166667 L6.75,18.4166667 C7.02614237,18.4166667 7.25,18.192809 7.25,17.9166667 L7.25,2.08333333 C7.25,1.80719096 7.02614237,1.58333333 6.75,1.58333333 Z M6.25,2.583 L6.25,17.416 L2.25,17.416 L2.25,2.583 L6.25,2.583 Z" id="Path"></path>
        </g>
    </g>
</svg>