<?xml version="1.0" encoding="UTF-8"?>
<svg width="20px" height="20px" viewBox="0 0 20 20" version="1.1" xmlns="http://www.w3.org/2000/svg" xmlns:xlink="http://www.w3.org/1999/xlink">
    <title>ICONS/furnitue/TapaciraniNamestaj</title>
    <g id="ICONS/furnitue/TapaciraniNamestaj" stroke="none" stroke-width="1" fill="none" fill-rule="evenodd">
        <g id="streamline-icon-sofa-double@20x20" transform="translate(0.000000, 4.000000)" fill="#707070" fill-rule="nonzero">
            <path d="M2.08333333,9.66666667 C2.32879322,9.66666667 2.5329417,9.84354183 2.57527766,10.076791 L2.58333333,10.1666667 L2.58333333,11.8333333 C2.58333333,12.1094757 2.35947571,12.3333333 2.08333333,12.3333333 C1.83787344,12.3333333 1.63372496,12.1564582 1.591389,11.923209 L1.58333333,11.8333333 L1.58333333,10.1666667 C1.58333333,9.89052429 1.80719096,9.66666667 2.08333333,9.66666667 Z" id="Path"></path>
            <path d="M17.9166667,9.66666667 C18.1621266,9.66666667 18.366275,9.84354183 18.408611,10.076791 L18.4166667,10.1666667 L18.4166667,11.8333333 C18.4166667,12.1094757 18.192809,12.3333333 17.9166667,12.3333333 C17.6712068,12.3333333 17.4670583,12.1564582 17.4247223,11.923209 L17.4166667,11.8333333 L17.4166667,10.1666667 C17.4166667,9.89052429 17.6405243,9.66666667 17.9166667,9.66666667 Z" id="Path"></path>
            <path d="M19.5833333,4.66666667 C19.8287932,4.66666667 20.0329417,4.84354183 20.0752777,5.07679103 L20.0833333,5.16666667 L20.0833333,8.5 C20.0833333,9.64459013 19.195802,10.5818862 18.0714012,10.6612265 L17.9166667,10.6666667 L2.08333333,10.6666667 C0.9387432,10.6666667 0.00144710873,9.77913536 -0.0778932127,8.65473449 L-0.0833333333,8.5 L-0.0833333333,5.16666667 C-0.0833333333,4.89052429 0.140524292,4.66666667 0.416666667,4.66666667 C0.662126555,4.66666667 0.866275037,4.84354183 0.908610997,5.07679103 L0.916666667,5.16666667 L0.916666667,8.5 C0.916666667,9.10137673 1.37167802,9.59647986 1.95621215,9.65982083 L2.08333333,9.66666667 L17.9166667,9.66666667 C18.5180434,9.66666667 19.0131465,9.21165532 19.0764875,8.62712119 L19.0833333,8.5 L19.0833333,5.16666667 C19.0833333,4.89052429 19.307191,4.66666667 19.5833333,4.66666667 Z" id="Path"></path>
            <path d="M17.0833333,4.66666667 C17.3287932,4.66666667 17.5329417,4.84354183 17.5752777,5.07679103 L17.5833333,5.16666667 L17.5833333,6 C17.5833333,6.69306322 17.0545439,7.26262105 16.3784089,7.32722971 L16.25,7.33333333 L3.75,7.33333333 C3.05693678,7.33333333 2.48737895,6.80454393 2.42277029,6.1284089 L2.41666667,6 L2.41666667,5.16666667 C2.41666667,4.89052429 2.64052429,4.66666667 2.91666667,4.66666667 C3.16212656,4.66666667 3.36627504,4.84354183 3.408611,5.07679103 L3.41666667,5.16666667 L3.41666667,6 C3.41666667,6.16108305 3.53092733,6.2954791 3.68282171,6.32656118 L3.75,6.33333333 L16.25,6.33333333 C16.4110831,6.33333333 16.5454791,6.21907267 16.5765612,6.06717829 L16.5833333,6 L16.5833333,5.16666667 C16.5833333,4.89052429 16.807191,4.66666667 17.0833333,4.66666667 Z" id="Path"></path>
            <path d="M14.5833333,-0.333333333 C16.6342658,-0.333333333 18.3090101,1.27731936 18.4116788,3.30273718 L18.4166667,3.5 L18.4166667,3.96916667 C18.4166667,4.24530904 18.192809,4.46916667 17.9166667,4.46916667 C17.6712068,4.46916667 17.4670583,4.29229151 17.4247223,4.0590423 L17.4166667,3.96916667 L17.4166667,3.5 C17.4166667,1.99314902 16.240365,0.761038016 14.7559321,0.671837545 L14.5833333,0.666666667 L5.41666667,0.666666667 C3.90981568,0.666666667 2.67770468,1.84296837 2.58850421,3.32740123 L2.58333333,3.5 L2.58333333,3.98083333 C2.58333333,4.25697571 2.35947571,4.48083333 2.08333333,4.48083333 C1.83787344,4.48083333 1.63372496,4.30395817 1.591389,4.07070897 L1.58333333,3.98083333 L1.58333333,3.5 C1.58333333,1.44906757 3.19398603,-0.225676766 5.21940384,-0.328345424 L5.41666667,-0.333333333 L14.5833333,-0.333333333 Z" id="Path"></path>
            <path d="M1.66666667,3.41666669 C2.63316497,3.41666669 3.41666667,4.20016836 3.41666667,5.16666667 C3.41666667,5.44280904 3.19280904,5.66666667 2.91666667,5.66666667 C2.67120678,5.66666667 2.4670583,5.48979151 2.42472234,5.2565423 L2.41666667,5.16666667 C2.41666667,4.75245312 2.08088023,4.41666669 1.66666667,4.41666669 C1.2869709,4.41666669 0.973175706,4.69882056 0.923513283,5.06489611 L0.916666667,5.16666667 C0.916666667,5.44280904 0.692809042,5.66666667 0.416666667,5.66666667 C0.140524292,5.66666667 -0.0833333333,5.44280904 -0.0833333333,5.16666667 C-0.0833333333,4.20016836 0.70016836,3.41666669 1.66666667,3.41666669 Z" id="Path"></path>
            <path d="M18.3333333,3.41666667 C19.2998316,3.41666667 20.0833333,4.20016835 20.0833333,5.16666667 C20.0833333,5.44280904 19.8594757,5.66666667 19.5833333,5.66666667 C19.3378734,5.66666667 19.133725,5.48979151 19.091389,5.2565423 L19.0833333,5.16666667 C19.0833333,4.7524531 18.7475469,4.41666667 18.3333333,4.41666667 C17.9536376,4.41666667 17.6398424,4.69882055 17.5901799,5.06489611 L17.5833333,5.16666667 C17.5833333,5.44280904 17.3594757,5.66666667 17.0833333,5.66666667 C16.807191,5.66666667 16.5833333,5.44280904 16.5833333,5.16666667 C16.5833333,4.20016835 17.366835,3.41666667 18.3333333,3.41666667 Z" id="Path"></path>
            <path d="M10,-0.333333333 C10.2454599,-0.333333333 10.4496084,-0.156458173 10.4919443,0.0767910343 L10.5,0.166666667 L10.5,6.83333333 C10.5,7.10947571 10.2761424,7.33333333 10,7.33333333 C9.75454011,7.33333333 9.55039163,7.15645817 9.50805567,6.92320897 L9.5,6.83333333 L9.5,0.166666667 C9.5,-0.109475708 9.72385763,-0.333333333 10,-0.333333333 Z" id="Path"></path>
        </g>
    </g>
</svg>