<?xml version="1.0" encoding="UTF-8"?>
<svg width="20px" height="20px" viewBox="0 0 20 20" version="1.1" xmlns="http://www.w3.org/2000/svg" xmlns:xlink="http://www.w3.org/1999/xlink">
    <title>ICONS/furnitue/Trpezarije</title>
    <g id="ICONS/furnitue/Trpezarije" stroke="none" stroke-width="1" fill="none" fill-rule="evenodd">
        <g id="streamline-icon-wine-restaurant@20x20" transform="translate(0.000000, 1.000000)" fill="#707070" fill-rule="nonzero">
            <path d="M0.361450904,4.75305813 C0.605409495,4.72595162 0.827841944,4.87920054 0.895677032,5.10634791 L0.913608534,5.19478424 L1.74694187,12.6947842 L1.74319696,12.8321995 L0.909863629,17.8321995 C0.864466102,18.1045847 0.606852334,18.2885945 0.334467173,18.243197 C0.0923470301,18.2028436 -0.0799456943,17.9948132 -0.0833774296,17.7577776 L-0.0765302952,17.6678005 L0.745,12.733 L-0.0802752007,5.30521576 C-0.107381711,5.06125717 0.045867206,4.83882472 0.273014574,4.77098963 L0.361450904,4.75305813 Z" id="Path"></path>
            <path d="M4.58333333,12.25 C5.27639655,12.25 5.84595438,12.7787894 5.91056304,13.4549244 L5.91666667,13.5833333 L5.91666667,17.75 C5.91666667,18.0261424 5.69280904,18.25 5.41666667,18.25 C5.17120678,18.25 4.9670583,18.0731248 4.92472234,17.8398756 L4.91666667,17.75 L4.91666667,13.5833333 C4.91666667,13.4222503 4.802406,13.2878542 4.65051163,13.2567721 L4.58333333,13.25 L1.25,13.25 C0.973857625,13.25 0.75,13.0261424 0.75,12.75 C0.75,12.5045401 0.926875161,12.3003916 1.16012437,12.2580557 L1.25,12.25 L4.58333333,12.25 Z" id="Path"></path>
            <path d="M19.5483336,4.75113943 L19.6385491,4.75305813 C19.8825077,4.78016464 20.0658749,4.97850242 20.0821939,5.21500023 L20.0802752,5.30521576 L19.254,12.733 L20.0765303,17.6678005 C20.1168837,17.9099206 19.9759769,18.1403696 19.7528613,18.2204754 L19.6655328,18.243197 C19.4234127,18.2835503 19.1929638,18.1426435 19.1128579,17.9195279 L19.0901364,17.8321995 L18.256803,12.8321995 L18.2530581,12.6947842 L19.0863915,5.19478424 C19.113498,4.95082565 19.3118357,4.76745838 19.5483336,4.75113943 Z" id="Path"></path>
            <path d="M18.75,12.25 C19.0261424,12.25 19.25,12.4738576 19.25,12.75 C19.25,12.9954599 19.0731248,13.1996084 18.8398756,13.2419443 L18.75,13.25 L15.4166667,13.25 C15.2555836,13.25 15.1211876,13.3642607 15.0901055,13.516155 L15.0833333,13.5833333 L15.0833333,17.75 C15.0833333,18.0261424 14.8594757,18.25 14.5833333,18.25 C14.3378734,18.25 14.133725,18.0731248 14.091389,17.8398756 L14.0833333,17.75 L14.0833333,13.5833333 C14.0833333,12.8902701 14.6121227,12.3207123 15.2882578,12.2561036 L15.4166667,12.25 L18.75,12.25 Z" id="Path"></path>
            <path d="M16.25,8.08333333 C16.5261424,8.08333333 16.75,8.30719096 16.75,8.58333333 C16.75,8.82879322 16.5731248,9.0329417 16.3398756,9.07527766 L16.25,9.08333333 L3.75,9.08333333 C3.47385763,9.08333333 3.25,8.85947571 3.25,8.58333333 C3.25,8.33787344 3.42687516,8.13372496 3.66012437,8.091389 L3.75,8.08333333 L16.25,8.08333333 Z" id="Path"></path>
            <path d="M10,8.08333333 C10.2454599,8.08333333 10.4496084,8.26020849 10.4919443,8.4934577 L10.5,8.58333333 L10.5,16.0833333 C10.5,16.3594757 10.2761424,16.5833333 10,16.5833333 C9.75454011,16.5833333 9.55039163,16.4064582 9.50805567,16.173209 L9.5,16.0833333 L9.5,8.58333333 C9.5,8.30719096 9.72385763,8.08333333 10,8.08333333 Z" id="Path"></path>
            <path d="M10,15.583328 C11.3662192,15.583328 12.6276157,16.315636 13.3050405,17.5020805 C13.4419627,17.7418865 13.3585589,18.047285 13.1187529,18.1842072 C12.8789469,18.3211294 12.5735483,18.2377256 12.4366261,17.9979195 C11.9371977,17.1232188 11.0072389,16.583328 10,16.583328 C8.99276112,16.583328 8.06280228,17.1232188 7.56337388,17.9979195 C7.42645169,18.2377256 7.12105314,18.3211294 6.88124712,18.1842072 C6.6414411,18.047285 6.55803728,17.7418865 6.69495946,17.5020805 C7.37238432,16.315636 8.63378082,15.583328 10,15.583328 Z" id="Path"></path>
            <path d="M8.75,3.08333333 L5.41666667,3.08333333 C5.15955726,3.08333333 4.94435875,3.27832436 4.91908771,3.53418882 C4.79051759,4.83593711 5.72383351,6.00258201 7.02205455,6.16289737 L7.14461211,6.16289737 C8.44283316,6.00258201 9.37614908,4.83593711 9.24757896,3.53418882 C9.22230792,3.27832436 9.0071094,3.08333333 8.75,3.08333333 Z M8.223,4.083 L8.20764395,4.15031214 C8.07030419,4.6417381 7.67121237,5.03401912 7.15379186,5.147876 L7.083,5.159 L7.01287481,5.147876 C6.4954543,5.03401912 6.09636248,4.6417381 5.95902272,4.15031214 L5.943,4.083 L8.223,4.083 Z" id="Path"></path>
            <path d="M7.08333333,5.16666667 C7.32879322,5.16666667 7.5329417,5.34354183 7.57527766,5.57679103 L7.58333333,5.66666667 L7.58333333,8.58333333 C7.58333333,8.85947571 7.35947571,9.08333333 7.08333333,9.08333333 C6.83787344,9.08333333 6.63372496,8.90645817 6.591389,8.67320897 L6.58333333,8.58333333 L6.58333333,5.66666667 C6.58333333,5.39052429 6.80719096,5.16666667 7.08333333,5.16666667 Z" id="Path"></path>
            <path d="M13.3333333,-0.25 L12.5,-0.25 C11.993739,-0.25 11.5833333,0.160405646 11.5833333,0.666666667 L11.5833333,1.58333333 C11.583146,1.91805624 11.4980725,2.24652798 11.3372796,2.53832218 L11.2506157,2.68102196 C10.9245016,3.17029172 10.7503291,3.74506104 10.75,4.33305353 L10.75,8.58333333 C10.75,8.85947571 10.9738576,9.08333333 11.25,9.08333333 L14.5833333,9.08333333 C14.8594757,9.08333333 15.0833333,8.85947571 15.0833333,8.58333333 L15.0833333,4.33333333 C15.0830453,3.81859507 14.9496585,3.31419504 14.6978454,2.8683653 L14.5827176,2.68102196 C14.3659766,2.35584491 14.2502186,1.97384339 14.25,1.58305353 L14.25,0.666666667 C14.25,0.160405646 13.8395944,-0.25 13.3333333,-0.25 Z M12.583,0.75 L13.25,0.75 L13.25,1.58333333 C13.250288,2.09807159 13.3836748,2.60247163 13.635488,3.04830137 L13.8372796,3.3783453 C13.9980725,3.6701444 14.083146,3.9986504 14.0833334,4.33361314 L14.083,8.083 L11.75,8.083 L11.75,4.33333333 C11.7501874,3.99861042 11.8352609,3.67013869 11.9960537,3.37834448 L12.1978454,3.04830192 C12.4496585,2.602476 12.5830453,2.09810657 12.5833333,1.58361314 L12.583,0.75 Z" id="Path"></path>
        </g>
    </g>
</svg>