<?xml version="1.0" encoding="UTF-8"?>
<svg width="20px" height="20px" viewBox="0 0 20 20" version="1.1" xmlns="http://www.w3.org/2000/svg" xmlns:xlink="http://www.w3.org/1999/xlink">
    <title>ICONS/furnitue/TVPolice</title>
    <g id="ICONS/furnitue/TVPolice" stroke="none" stroke-width="1" fill="none" fill-rule="evenodd">
        <g id="streamline-icon-shelf-tv-1@20x20" fill="#707070" fill-rule="nonzero">
            <path d="M17.9166667,-0.0833333333 L2.08333333,-0.0833333333 C1.80719096,-0.0833333333 1.58333333,0.140524292 1.58333333,0.416666667 L1.58333333,7.91666667 C1.58333333,8.19280904 1.80719096,8.41666667 2.08333333,8.41666667 L17.9166667,8.41666667 C18.192809,8.41666667 18.4166667,8.19280904 18.4166667,7.91666667 L18.4166667,0.416666667 C18.4166667,0.140524292 18.192809,-0.0833333333 17.9166667,-0.0833333333 Z M17.416,0.916 L17.416,7.416 L2.583,7.416 L2.583,0.916 L17.416,0.916 Z" id="Path"></path>
            <path d="M19.5833333,9.91666667 L0.416666667,9.91666667 C0.140524292,9.91666667 -0.0833333333,10.1405243 -0.0833333333,10.4166667 L-0.0833333333,19.5833333 C-0.0833333333,19.8594757 0.140524292,20.0833333 0.416666667,20.0833333 L19.5833333,20.0833333 C19.8594757,20.0833333 20.0833333,19.8594757 20.0833333,19.5833333 L20.0833333,10.4166667 C20.0833333,10.1405243 19.8594757,9.91666667 19.5833333,9.91666667 Z M19.083,10.916 L19.083,19.083 L0.916,19.083 L0.916,10.916 L19.083,10.916 Z" id="Path"></path>
            <path d="M19.5833333,12.4166667 C19.8594757,12.4166667 20.0833333,12.6405243 20.0833333,12.9166667 C20.0833333,13.1621266 19.9064582,13.366275 19.673209,13.408611 L19.5833333,13.4166667 L0.416666667,13.4166667 C0.140524292,13.4166667 -0.0833333333,13.192809 -0.0833333333,12.9166667 C-0.0833333333,12.6712068 0.0935418272,12.4670583 0.326791034,12.4247223 L0.416666667,12.4166667 L19.5833333,12.4166667 Z" id="Path"></path>
            <path d="M10,7.41666667 C10.2454599,7.41666667 10.4496084,7.59354183 10.4919443,7.82679103 L10.5,7.91666667 L10.5,10.4166667 C10.5,10.692809 10.2761424,10.9166667 10,10.9166667 C9.75454011,10.9166667 9.55039163,10.7397915 9.50805567,10.5065423 L9.5,10.4166667 L9.5,7.91666667 C9.5,7.64052429 9.72385763,7.41666667 10,7.41666667 Z" id="Path"></path>
            <path d="M10,12.4166667 C10.2454599,12.4166667 10.4496084,12.5935418 10.4919443,12.826791 L10.5,12.9166667 L10.5,19.5833333 C10.5,19.8594757 10.2761424,20.0833333 10,20.0833333 C9.75454011,20.0833333 9.55039163,19.9064582 9.50805567,19.673209 L9.5,19.5833333 L9.5,12.9166667 C9.5,12.6405243 9.72385763,12.4166667 10,12.4166667 Z" id="Path"></path>
            <path d="M8.125,14.0833333 L8.22111664,14.0897996 C8.56685467,14.136703 8.83333333,14.4330651 8.83333333,14.7916667 C8.83333333,15.1828684 8.5162017,15.5 8.125,15.5 C7.7337983,15.5 7.41666667,15.1828684 7.41666667,14.7916667 C7.41666667,14.4330651 7.68314533,14.136703 8.02888336,14.0897996 L8.125,14.0833333 Z" id="Path"></path>
            <path d="M11.875,14.0833333 L11.9711166,14.0897996 C12.3168547,14.136703 12.5833333,14.4330651 12.5833333,14.7916667 C12.5833333,15.1828684 12.2662017,15.5 11.875,15.5 C11.4837983,15.5 11.1666667,15.1828684 11.1666667,14.7916667 C11.1666667,14.4330651 11.4331453,14.136703 11.7788834,14.0897996 L11.875,14.0833333 Z" id="Path"></path>
        </g>
    </g>
</svg>