<?xml version="1.0" encoding="UTF-8"?>
<svg width="20px" height="20px" viewBox="0 0 20 20" version="1.1" xmlns="http://www.w3.org/2000/svg" xmlns:xlink="http://www.w3.org/1999/xlink">
    <title>ICONS/furnitue/VirtineRegali</title>
    <g id="ICONS/furnitue/VirtineRegali" stroke="none" stroke-width="1" fill="none" fill-rule="evenodd">
        <g id="streamline-icon-dresser-drawers-1@20x20" transform="translate(2.000000, 0.000000)" fill="#707070" fill-rule="nonzero">
            <path d="M15.9166667,-0.0833333333 L0.0833333333,-0.0833333333 C-0.192809042,-0.0833333333 -0.416666667,0.140524292 -0.416666667,0.416666667 L-0.416666667,18.75 C-0.416666667,19.0261424 -0.192809042,19.25 0.0833333333,19.25 L15.9166667,19.25 C16.192809,19.25 16.4166667,19.0261424 16.4166667,18.75 L16.4166667,0.416666667 C16.4166667,0.140524292 16.192809,-0.0833333333 15.9166667,-0.0833333333 Z M15.416,0.916 L15.416,18.25 L0.583,18.25 L0.583,0.916 L15.416,0.916 Z" id="Path"></path>
            <path d="M1.75,18.25 C1.99545989,18.25 2.19960837,18.4268752 2.24194433,18.6601244 L2.25,18.75 L2.25,19.5833333 C2.25,19.8594757 2.02614237,20.0833333 1.75,20.0833333 C1.50454011,20.0833333 1.30039163,19.9064582 1.25805567,19.673209 L1.25,19.5833333 L1.25,18.75 C1.25,18.4738576 1.47385763,18.25 1.75,18.25 Z" id="Path"></path>
            <path d="M14.25,18.25 C14.4954599,18.25 14.6996084,18.4268752 14.7419443,18.6601244 L14.75,18.75 L14.75,19.5833333 C14.75,19.8594757 14.5261424,20.0833333 14.25,20.0833333 C14.0045401,20.0833333 13.8003916,19.9064582 13.7580557,19.673209 L13.75,19.5833333 L13.75,18.75 C13.75,18.4738576 13.9738576,18.25 14.25,18.25 Z" id="Path"></path>
            <path d="M15.9166667,11.5833333 C16.192809,11.5833333 16.4166667,11.807191 16.4166667,12.0833333 C16.4166667,12.3287932 16.2397915,12.5329417 16.0065423,12.5752777 L15.9166667,12.5833333 L0.0833333333,12.5833333 C-0.192809042,12.5833333 -0.416666667,12.3594757 -0.416666667,12.0833333 C-0.416666667,11.8378734 -0.239791506,11.633725 -0.00654229902,11.591389 L0.0833333333,11.5833333 L15.9166667,11.5833333 Z" id="Path"></path>
            <path d="M8,11.5833333 C8.24545989,11.5833333 8.44960837,11.7602085 8.49194433,11.9934577 L8.5,12.0833333 L8.5,18.75 C8.5,19.0261424 8.27614237,19.25 8,19.25 C7.75454011,19.25 7.55039163,19.0731248 7.50805567,18.8398756 L7.5,18.75 L7.5,12.0833333 C7.5,11.807191 7.72385763,11.5833333 8,11.5833333 Z" id="Path"></path>
            <path d="M15.9166667,5.75 C16.192809,5.75 16.4166667,5.97385763 16.4166667,6.25 C16.4166667,6.49545989 16.2397915,6.69960837 16.0065423,6.74194433 L15.9166667,6.75 L0.0833333333,6.75 C-0.192809042,6.75 -0.416666667,6.52614237 -0.416666667,6.25 C-0.416666667,6.00454011 -0.239791506,5.80039163 -0.00654229902,5.75805567 L0.0833333333,5.75 L15.9166667,5.75 Z" id="Path"></path>
            <path d="M5.08333333,14.2916667 L5.17944997,14.2981329 C5.525188,14.3450363 5.79166667,14.6413984 5.79166667,15 C5.79166667,15.3912017 5.47453503,15.7083333 5.08333333,15.7083333 C4.69213164,15.7083333 4.375,15.3912017 4.375,15 C4.375,14.6413984 4.64147867,14.3450363 4.9872167,14.2981329 L5.08333333,14.2916667 Z" id="Path"></path>
            <path d="M10.9166667,14.2916667 L11.0127833,14.2981329 C11.3585213,14.3450363 11.625,14.6413984 11.625,15 C11.625,15.3912017 11.3078684,15.7083333 10.9166667,15.7083333 C10.525465,15.7083333 10.2083333,15.3912017 10.2083333,15 C10.2083333,14.6413984 10.474812,14.3450363 10.82055,14.2981329 L10.9166667,14.2916667 Z" id="Path"></path>
        </g>
    </g>
</svg>